<svg xmlns="http://www.w3.org/2000/svg" viewBox="-10 -49 217 189" width="217" height="189" role="img" aria-label="こもれび家具工房"><path d="M186,27 l13,9 V135 H13 L3,125Z" fill="#312619" opacity="0.14"/><rect x="4" y="28" width="182" height="99" fill="#F3EAD9" stroke="#1F1D1B" stroke-width="1.2" stroke-linejoin="round" stroke-linecap="round"/><path d="M186,28 l6,-6 V122 l-6,5Z" fill="#c7c0b2" stroke="#1F1D1B" stroke-width="0.8" stroke-linejoin="round" stroke-linecap="round"/><path d="M6,35 L184,35" stroke="#d3ccbd" stroke-width="0.45" stroke-linecap="round" fill="none"/><path d="M6,44 L184,44" stroke="#d3ccbd" stroke-width="0.45" stroke-linecap="round" fill="none"/><path d="M6,53 L184,53" stroke="#d3ccbd" stroke-width="0.45" stroke-linecap="round" fill="none"/><path d="M6,62 L184,62" stroke="#d3ccbd" stroke-width="0.45" stroke-linecap="round" fill="none"/><path d="M6,71 L184,71" stroke="#d3ccbd" stroke-width="0.45" stroke-linecap="round" fill="none"/><path d="M6,80 L184,80" stroke="#d3ccbd" stroke-width="0.45" stroke-linecap="round" fill="none"/><path d="M6,89 L184,89" stroke="#d3ccbd" stroke-width="0.45" stroke-linecap="round" fill="none"/><path d="M6,98 L184,98" stroke="#d3ccbd" stroke-width="0.45" stroke-linecap="round" fill="none"/><path d="M6,107 L184,107" stroke="#d3ccbd" stroke-width="0.45" stroke-linecap="round" fill="none"/><rect x="4" y="107" width="182" height="20" fill="#BD8E77" stroke="#82634F" stroke-width="0.7" stroke-linejoin="round" stroke-linecap="round"/><path d="M4,107 L186,107" stroke="#E2C9AA" stroke-width="0.6" stroke-linecap="round" fill="none"/><path d="M18,107 L18,113" stroke="#E2C9AA" stroke-width="0.6" stroke-linecap="round" fill="none"/><path d="M32,107 L32,113" stroke="#E2C9AA" stroke-width="0.6" stroke-linecap="round" fill="none"/><path d="M46,107 L46,113" stroke="#E2C9AA" stroke-width="0.6" stroke-linecap="round" fill="none"/><path d="M60,107 L60,113" stroke="#E2C9AA" stroke-width="0.6" stroke-linecap="round" fill="none"/><path d="M74,107 L74,113" stroke="#E2C9AA" stroke-width="0.6" stroke-linecap="round" fill="none"/><path d="M88,107 L88,113" stroke="#E2C9AA" stroke-width="0.6" stroke-linecap="round" fill="none"/><path d="M102,107 L102,113" stroke="#E2C9AA" stroke-width="0.6" stroke-linecap="round" fill="none"/><path d="M116,107 L116,113" stroke="#E2C9AA" stroke-width="0.6" stroke-linecap="round" fill="none"/><path d="M130,107 L130,113" stroke="#E2C9AA" stroke-width="0.6" stroke-linecap="round" fill="none"/><path d="M144,107 L144,113" stroke="#E2C9AA" stroke-width="0.6" stroke-linecap="round" fill="none"/><path d="M158,107 L158,113" stroke="#E2C9AA" stroke-width="0.6" stroke-linecap="round" fill="none"/><path d="M172,107 L172,113" stroke="#E2C9AA" stroke-width="0.6" stroke-linecap="round" fill="none"/><path d="M4,113 L186,113" stroke="#E2C9AA" stroke-width="0.6" stroke-linecap="round" fill="none"/><path d="M11,113 L11,119" stroke="#E2C9AA" stroke-width="0.6" stroke-linecap="round" fill="none"/><path d="M25,113 L25,119" stroke="#E2C9AA" stroke-width="0.6" stroke-linecap="round" fill="none"/><path d="M39,113 L39,119" stroke="#E2C9AA" stroke-width="0.6" stroke-linecap="round" fill="none"/><path d="M53,113 L53,119" stroke="#E2C9AA" stroke-width="0.6" stroke-linecap="round" fill="none"/><path d="M67,113 L67,119" stroke="#E2C9AA" stroke-width="0.6" stroke-linecap="round" fill="none"/><path d="M81,113 L81,119" stroke="#E2C9AA" stroke-width="0.6" stroke-linecap="round" fill="none"/><path d="M95,113 L95,119" stroke="#E2C9AA" stroke-width="0.6" stroke-linecap="round" fill="none"/><path d="M109,113 L109,119" stroke="#E2C9AA" stroke-width="0.6" stroke-linecap="round" fill="none"/><path d="M123,113 L123,119" stroke="#E2C9AA" stroke-width="0.6" stroke-linecap="round" fill="none"/><path d="M137,113 L137,119" stroke="#E2C9AA" stroke-width="0.6" stroke-linecap="round" fill="none"/><path d="M151,113 L151,119" stroke="#E2C9AA" stroke-width="0.6" stroke-linecap="round" fill="none"/><path d="M165,113 L165,119" stroke="#E2C9AA" stroke-width="0.6" stroke-linecap="round" fill="none"/><path d="M4,119 L186,119" stroke="#E2C9AA" stroke-width="0.6" stroke-linecap="round" fill="none"/><path d="M18,119 L18,125" stroke="#E2C9AA" stroke-width="0.6" stroke-linecap="round" fill="none"/><path d="M32,119 L32,125" stroke="#E2C9AA" stroke-width="0.6" stroke-linecap="round" fill="none"/><path d="M46,119 L46,125" stroke="#E2C9AA" stroke-width="0.6" stroke-linecap="round" fill="none"/><path d="M60,119 L60,125" stroke="#E2C9AA" stroke-width="0.6" stroke-linecap="round" fill="none"/><path d="M74,119 L74,125" stroke="#E2C9AA" stroke-width="0.6" stroke-linecap="round" fill="none"/><path d="M88,119 L88,125" stroke="#E2C9AA" stroke-width="0.6" stroke-linecap="round" fill="none"/><path d="M102,119 L102,125" stroke="#E2C9AA" stroke-width="0.6" stroke-linecap="round" fill="none"/><path d="M116,119 L116,125" stroke="#E2C9AA" stroke-width="0.6" stroke-linecap="round" fill="none"/><path d="M130,119 L130,125" stroke="#E2C9AA" stroke-width="0.6" stroke-linecap="round" fill="none"/><path d="M144,119 L144,125" stroke="#E2C9AA" stroke-width="0.6" stroke-linecap="round" fill="none"/><path d="M158,119 L158,125" stroke="#E2C9AA" stroke-width="0.6" stroke-linecap="round" fill="none"/><path d="M172,119 L172,125" stroke="#E2C9AA" stroke-width="0.6" stroke-linecap="round" fill="none"/><path d="M4,125 L186,125" stroke="#E2C9AA" stroke-width="0.6" stroke-linecap="round" fill="none"/><path d="M11,125 L11,127" stroke="#E2C9AA" stroke-width="0.6" stroke-linecap="round" fill="none"/><path d="M25,125 L25,127" stroke="#E2C9AA" stroke-width="0.6" stroke-linecap="round" fill="none"/><path d="M39,125 L39,127" stroke="#E2C9AA" stroke-width="0.6" stroke-linecap="round" fill="none"/><path d="M53,125 L53,127" stroke="#E2C9AA" stroke-width="0.6" stroke-linecap="round" fill="none"/><path d="M67,125 L67,127" stroke="#E2C9AA" stroke-width="0.6" stroke-linecap="round" fill="none"/><path d="M81,125 L81,127" stroke="#E2C9AA" stroke-width="0.6" stroke-linecap="round" fill="none"/><path d="M95,125 L95,127" stroke="#E2C9AA" stroke-width="0.6" stroke-linecap="round" fill="none"/><path d="M109,125 L109,127" stroke="#E2C9AA" stroke-width="0.6" stroke-linecap="round" fill="none"/><path d="M123,125 L123,127" stroke="#E2C9AA" stroke-width="0.6" stroke-linecap="round" fill="none"/><path d="M137,125 L137,127" stroke="#E2C9AA" stroke-width="0.6" stroke-linecap="round" fill="none"/><path d="M151,125 L151,127" stroke="#E2C9AA" stroke-width="0.6" stroke-linecap="round" fill="none"/><path d="M165,125 L165,127" stroke="#E2C9AA" stroke-width="0.6" stroke-linecap="round" fill="none"/><path d="M18,-9 H174 L196,33 H-4Z" fill="#718B71" stroke="#1F1D1B" stroke-width="1.3" stroke-linejoin="round" stroke-linecap="round"/><path d="M28.4,-8 L9.3,31" stroke="#586c58" stroke-width="0.7" stroke-linecap="round" fill="none"/><path d="M29.4,-8 L10.3,31" stroke="#93a793" stroke-width="0.5" stroke-linecap="round" fill="none"/><path d="M38.8,-8 L22.7,31" stroke="#586c58" stroke-width="0.7" stroke-linecap="round" fill="none"/><path d="M39.8,-8 L23.7,31" stroke="#93a793" stroke-width="0.5" stroke-linecap="round" fill="none"/><path d="M49.2,-8 L36,31" stroke="#586c58" stroke-width="0.7" stroke-linecap="round" fill="none"/><path d="M50.2,-8 L37,31" stroke="#93a793" stroke-width="0.5" stroke-linecap="round" fill="none"/><path d="M59.6,-8 L49.3,31" stroke="#586c58" stroke-width="0.7" stroke-linecap="round" fill="none"/><path d="M60.6,-8 L50.3,31" stroke="#93a793" stroke-width="0.5" stroke-linecap="round" fill="none"/><path d="M70,-8 L62.7,31" stroke="#586c58" stroke-width="0.7" stroke-linecap="round" fill="none"/><path d="M71,-8 L63.7,31" stroke="#93a793" stroke-width="0.5" stroke-linecap="round" fill="none"/><path d="M80.4,-8 L76,31" stroke="#586c58" stroke-width="0.7" stroke-linecap="round" fill="none"/><path d="M81.4,-8 L77,31" stroke="#93a793" stroke-width="0.5" stroke-linecap="round" fill="none"/><path d="M90.8,-8 L89.3,31" stroke="#586c58" stroke-width="0.7" stroke-linecap="round" fill="none"/><path d="M91.8,-8 L90.3,31" stroke="#93a793" stroke-width="0.5" stroke-linecap="round" fill="none"/><path d="M101.2,-8 L102.7,31" stroke="#586c58" stroke-width="0.7" stroke-linecap="round" fill="none"/><path d="M102.2,-8 L103.7,31" stroke="#93a793" stroke-width="0.5" stroke-linecap="round" fill="none"/><path d="M111.6,-8 L116,31" stroke="#586c58" stroke-width="0.7" stroke-linecap="round" fill="none"/><path d="M112.6,-8 L117,31" stroke="#93a793" stroke-width="0.5" stroke-linecap="round" fill="none"/><path d="M122,-8 L129.3,31" stroke="#586c58" stroke-width="0.7" stroke-linecap="round" fill="none"/><path d="M123,-8 L130.3,31" stroke="#93a793" stroke-width="0.5" stroke-linecap="round" fill="none"/><path d="M132.4,-8 L142.7,31" stroke="#586c58" stroke-width="0.7" stroke-linecap="round" fill="none"/><path d="M133.4,-8 L143.7,31" stroke="#93a793" stroke-width="0.5" stroke-linecap="round" fill="none"/><path d="M142.8,-8 L156,31" stroke="#586c58" stroke-width="0.7" stroke-linecap="round" fill="none"/><path d="M143.8,-8 L157,31" stroke="#93a793" stroke-width="0.5" stroke-linecap="round" fill="none"/><path d="M153.2,-8 L169.3,31" stroke="#586c58" stroke-width="0.7" stroke-linecap="round" fill="none"/><path d="M154.2,-8 L170.3,31" stroke="#93a793" stroke-width="0.5" stroke-linecap="round" fill="none"/><path d="M163.6,-8 L182.7,31" stroke="#586c58" stroke-width="0.7" stroke-linecap="round" fill="none"/><path d="M164.6,-8 L183.7,31" stroke="#93a793" stroke-width="0.5" stroke-linecap="round" fill="none"/><rect x="-5" y="33" width="202" height="4" fill="#4b5c4b" stroke="#1F1D1B" stroke-width="0.9" stroke-linejoin="round" stroke-linecap="round"/><rect x="0" y="37" width="192" height="4" fill="#332B20" opacity="0.16"/><path d="M57,35 V5 L96,-23 L135,5 V35Z" fill="#F3EAD9" stroke="#1F1D1B" stroke-width="1" stroke-linejoin="round" stroke-linecap="round"/><path d="M53,8 L96,-29 L139,8" fill="none" stroke="#718B71" stroke-width="4" stroke-linejoin="round" stroke-linecap="round"/><path d="M96,0 L96,30" stroke="#A97850" stroke-width="2" stroke-linecap="round" fill="none"/><path d="M66,12 L126,12" stroke="#A97850" stroke-width="2" stroke-linecap="round" fill="none"/><rect x="76" y="16" width="40" height="15" fill="#94BEC2" stroke="#31594E" stroke-width="0.8" stroke-linejoin="round" stroke-linecap="round"/><path d="M78,29 L100,18 h8 L84,29Z" fill="#E5F3EC" opacity="0.7"/><path d="M96,16 L96,31" stroke="#F3EAD9" stroke-width="1.1" stroke-linecap="round" fill="none"/><path d="M76,24.7 L116,24.7" stroke="#F3EAD9" stroke-width="0.8" stroke-linecap="round" fill="none"/><rect x="14" y="69" width="74" height="34" fill="#94BEC2" stroke="#31594E" stroke-width="0.8" stroke-linejoin="round" stroke-linecap="round"/><path d="M16,101 L58.4,71 h14.8 L28.8,101Z" fill="#E5F3EC" opacity="0.7"/><path d="M51,69 L51,103" stroke="#F3EAD9" stroke-width="1.1" stroke-linecap="round" fill="none"/><path d="M14,88.7 L88,88.7" stroke="#F3EAD9" stroke-width="0.8" stroke-linecap="round" fill="none"/><rect x="16" y="85" width="70" height="3" fill="#A97850"/><rect x="16" y="103" width="70" height="3" fill="#A97850"/><rect x="138" y="69" width="40" height="34" fill="#94BEC2" stroke="#31594E" stroke-width="0.8" stroke-linejoin="round" stroke-linecap="round"/><path d="M140,101 L162,71 h8 L146,101Z" fill="#E5F3EC" opacity="0.7"/><path d="M158,69 L158,103" stroke="#F3EAD9" stroke-width="1.1" stroke-linecap="round" fill="none"/><path d="M138,88.7 L178,88.7" stroke="#F3EAD9" stroke-width="0.8" stroke-linecap="round" fill="none"/><rect x="140" y="85" width="36" height="3" fill="#A97850"/><rect x="140" y="103" width="36" height="3" fill="#A97850"/><rect x="19" y="87" width="64" height="5" fill="#A97850" stroke="#1F1D1B" stroke-width="0.7" stroke-linejoin="round" stroke-linecap="round"/><path d="M24,92 L22,106" stroke="#31594E" stroke-width="1.5" stroke-linecap="round" fill="none"/><path d="M78,92 L80,106" stroke="#31594E" stroke-width="1.5" stroke-linecap="round" fill="none"/><path d="M23,83 v13 h56 v-13" fill="none" stroke="#A97850" stroke-width="2" stroke-linejoin="round" stroke-linecap="round"/><path d="M26,84 L26,93" stroke="#A97850" stroke-width="1" stroke-linecap="round" fill="none"/><path d="M39,84 L39,93" stroke="#A97850" stroke-width="1" stroke-linecap="round" fill="none"/><path d="M52,84 L52,93" stroke="#A97850" stroke-width="1" stroke-linecap="round" fill="none"/><path d="M65,84 L65,93" stroke="#A97850" stroke-width="1" stroke-linecap="round" fill="none"/><path d="M78,84 L78,93" stroke="#A97850" stroke-width="1" stroke-linecap="round" fill="none"/><rect x="143" y="87" width="30" height="5" fill="#A97850" stroke="#1F1D1B" stroke-width="0.7" stroke-linejoin="round" stroke-linecap="round"/><path d="M148,92 L146,106" stroke="#31594E" stroke-width="1.5" stroke-linecap="round" fill="none"/><path d="M168,92 L170,106" stroke="#31594E" stroke-width="1.5" stroke-linecap="round" fill="none"/><path d="M147,83 v13 h22 v-13" fill="none" stroke="#A97850" stroke-width="2" stroke-linejoin="round" stroke-linecap="round"/><path d="M150,84 L150,93" stroke="#A97850" stroke-width="1" stroke-linecap="round" fill="none"/><path d="M163,84 L163,93" stroke="#A97850" stroke-width="1" stroke-linecap="round" fill="none"/><rect x="93" y="68" width="38" height="58" fill="#A97850" stroke="#1F1D1B" stroke-width="0.9" stroke-linejoin="round" stroke-linecap="round"/><rect x="96" y="71" width="32" height="51" fill="#94BEC2" stroke="#31594E" stroke-width="0.8" stroke-linejoin="round" stroke-linecap="round"/><path d="M98,120 L115.2,73 h6.4 L102.4,120Z" fill="#E5F3EC" opacity="0.7"/><path d="M112,71 L112,122" stroke="#F3EAD9" stroke-width="1.1" stroke-linecap="round" fill="none"/><path d="M96,100.6 L128,100.6" stroke="#F3EAD9" stroke-width="0.8" stroke-linecap="round" fill="none"/><path d="M112,72 L112,122" stroke="#31594E" stroke-width="1.2" stroke-linecap="round" fill="none"/><path d="M123,96 L123,104" stroke="#BC795C" stroke-width="1.4" stroke-linecap="round" fill="none"/><rect x="89" y="124" width="46" height="3" fill="#CCC2AA" stroke="#1F1D1B" stroke-width="0.6" stroke-linejoin="round" stroke-linecap="round"/><rect x="54" y="35" width="116" height="23" rx="2" fill="#718B71" stroke="#1F1D1B" stroke-width="0.8" stroke-linejoin="round" stroke-linecap="round"/><path d="M56,37 L168,37" stroke="#b1bfb1" stroke-width="0.6" stroke-linecap="round" fill="none"/><text x="112" y="46" font-size="10" font-weight="800" fill="#F3EAD9" text-anchor="middle" font-family="'Noto Sans CJK JP','Noto Sans JP',sans-serif">こもれび かぐ工房</text><text x="112" y="54" font-size="4.8" font-weight="800" fill="#E6D6B0" text-anchor="middle" font-family="'Noto Sans CJK JP','Noto Sans JP',sans-serif" letter-spacing="1">WOODWORKS</text><path d="M6,35 L6,119" stroke="#BC795C" stroke-width="1.6" stroke-linecap="round" fill="none"/><path d="M182,35 L182,118" stroke="#BC795C" stroke-width="1.6" stroke-linecap="round" fill="none"/><path d="M6,119 l4,5 M182,118 l-4,5" fill="none" stroke="#BC795C" stroke-width="1.6" stroke-linejoin="round" stroke-linecap="round"/><path d="M88,68 L88,77" stroke="#31594E" stroke-width="1" stroke-linecap="round" fill="none"/><path d="M84,78 l2,-5 h4 l2,5Z" fill="#648975" stroke="#1F1D1B" stroke-width="0.7" stroke-linejoin="round" stroke-linecap="round"/><rect x="85" y="78" width="6" height="8" fill="#EDE0B3" stroke="#1F1D1B" stroke-width="0.6" stroke-linejoin="round" stroke-linecap="round"/><path d="M84,86 L92,86" stroke="#31594E" stroke-width="1" stroke-linecap="round" fill="none"/><rect x="150" y="110" width="25" height="8" fill="#A97850" stroke="#1F1D1B" stroke-width="0.7" stroke-linejoin="round" stroke-linecap="round"/><path d="M153,118 L153,125" stroke="#31594E" stroke-width="1.3" stroke-linecap="round" fill="none"/><path d="M172,118 L172,125" stroke="#31594E" stroke-width="1.3" stroke-linecap="round" fill="none"/></svg>