<svg xmlns="http://www.w3.org/2000/svg" viewBox="-10 -49 249 221" width="249" height="221" role="img" aria-label="スレート屋根の 洋館"><path d="M218,27 l13,9 V167 H13 L3,157Z" fill="#312619" opacity="0.14"/><rect x="4" y="28" width="214" height="131" fill="#F4F1EA" stroke="#1F1D1B" stroke-width="1.2" stroke-linejoin="round" stroke-linecap="round"/><path d="M218,28 l6,-6 V154 l-6,5Z" fill="#c8c6c0" stroke="#1F1D1B" stroke-width="0.8" stroke-linejoin="round" stroke-linecap="round"/><path d="M6,35 L216,35" stroke="#d4d2cc" stroke-width="0.45" stroke-linecap="round" fill="none"/><path d="M6,44 L216,44" stroke="#d4d2cc" stroke-width="0.45" stroke-linecap="round" fill="none"/><path d="M6,53 L216,53" stroke="#d4d2cc" stroke-width="0.45" stroke-linecap="round" fill="none"/><path d="M6,62 L216,62" stroke="#d4d2cc" stroke-width="0.45" stroke-linecap="round" fill="none"/><path d="M6,71 L216,71" stroke="#d4d2cc" stroke-width="0.45" stroke-linecap="round" fill="none"/><path d="M6,80 L216,80" stroke="#d4d2cc" stroke-width="0.45" stroke-linecap="round" fill="none"/><path d="M6,89 L216,89" stroke="#d4d2cc" stroke-width="0.45" stroke-linecap="round" fill="none"/><path d="M6,98 L216,98" stroke="#d4d2cc" stroke-width="0.45" stroke-linecap="round" fill="none"/><path d="M6,107 L216,107" stroke="#d4d2cc" stroke-width="0.45" stroke-linecap="round" fill="none"/><path d="M6,116 L216,116" stroke="#d4d2cc" stroke-width="0.45" stroke-linecap="round" fill="none"/><path d="M6,125 L216,125" stroke="#d4d2cc" stroke-width="0.45" stroke-linecap="round" fill="none"/><path d="M6,134 L216,134" stroke="#d4d2cc" stroke-width="0.45" stroke-linecap="round" fill="none"/><rect x="4" y="139" width="214" height="20" fill="#BD8E77" stroke="#82634F" stroke-width="0.7" stroke-linejoin="round" stroke-linecap="round"/><path d="M4,139 L218,139" stroke="#E2C9AA" stroke-width="0.6" stroke-linecap="round" fill="none"/><path d="M18,139 L18,145" stroke="#E2C9AA" stroke-width="0.6" stroke-linecap="round" fill="none"/><path d="M32,139 L32,145" stroke="#E2C9AA" stroke-width="0.6" stroke-linecap="round" fill="none"/><path d="M46,139 L46,145" stroke="#E2C9AA" stroke-width="0.6" stroke-linecap="round" fill="none"/><path d="M60,139 L60,145" stroke="#E2C9AA" stroke-width="0.6" stroke-linecap="round" fill="none"/><path d="M74,139 L74,145" stroke="#E2C9AA" stroke-width="0.6" stroke-linecap="round" fill="none"/><path d="M88,139 L88,145" stroke="#E2C9AA" stroke-width="0.6" stroke-linecap="round" fill="none"/><path d="M102,139 L102,145" stroke="#E2C9AA" stroke-width="0.6" stroke-linecap="round" fill="none"/><path d="M116,139 L116,145" stroke="#E2C9AA" stroke-width="0.6" stroke-linecap="round" fill="none"/><path d="M130,139 L130,145" stroke="#E2C9AA" stroke-width="0.6" stroke-linecap="round" fill="none"/><path d="M144,139 L144,145" stroke="#E2C9AA" stroke-width="0.6" stroke-linecap="round" fill="none"/><path d="M158,139 L158,145" stroke="#E2C9AA" stroke-width="0.6" stroke-linecap="round" fill="none"/><path d="M172,139 L172,145" stroke="#E2C9AA" stroke-width="0.6" stroke-linecap="round" fill="none"/><path d="M186,139 L186,145" stroke="#E2C9AA" stroke-width="0.6" stroke-linecap="round" fill="none"/><path d="M200,139 L200,145" stroke="#E2C9AA" stroke-width="0.6" stroke-linecap="round" fill="none"/><path d="M214,139 L214,145" stroke="#E2C9AA" stroke-width="0.6" stroke-linecap="round" fill="none"/><path d="M4,145 L218,145" stroke="#E2C9AA" stroke-width="0.6" stroke-linecap="round" fill="none"/><path d="M11,145 L11,151" stroke="#E2C9AA" stroke-width="0.6" stroke-linecap="round" fill="none"/><path d="M25,145 L25,151" stroke="#E2C9AA" stroke-width="0.6" stroke-linecap="round" fill="none"/><path d="M39,145 L39,151" stroke="#E2C9AA" stroke-width="0.6" stroke-linecap="round" fill="none"/><path d="M53,145 L53,151" stroke="#E2C9AA" stroke-width="0.6" stroke-linecap="round" fill="none"/><path d="M67,145 L67,151" stroke="#E2C9AA" stroke-width="0.6" stroke-linecap="round" fill="none"/><path d="M81,145 L81,151" stroke="#E2C9AA" stroke-width="0.6" stroke-linecap="round" fill="none"/><path d="M95,145 L95,151" stroke="#E2C9AA" stroke-width="0.6" stroke-linecap="round" fill="none"/><path d="M109,145 L109,151" stroke="#E2C9AA" stroke-width="0.6" stroke-linecap="round" fill="none"/><path d="M123,145 L123,151" stroke="#E2C9AA" stroke-width="0.6" stroke-linecap="round" fill="none"/><path d="M137,145 L137,151" stroke="#E2C9AA" stroke-width="0.6" stroke-linecap="round" fill="none"/><path d="M151,145 L151,151" stroke="#E2C9AA" stroke-width="0.6" stroke-linecap="round" fill="none"/><path d="M165,145 L165,151" stroke="#E2C9AA" stroke-width="0.6" stroke-linecap="round" fill="none"/><path d="M179,145 L179,151" stroke="#E2C9AA" stroke-width="0.6" stroke-linecap="round" fill="none"/><path d="M193,145 L193,151" stroke="#E2C9AA" stroke-width="0.6" stroke-linecap="round" fill="none"/><path d="M207,145 L207,151" stroke="#E2C9AA" stroke-width="0.6" stroke-linecap="round" fill="none"/><path d="M4,151 L218,151" stroke="#E2C9AA" stroke-width="0.6" stroke-linecap="round" fill="none"/><path d="M18,151 L18,157" stroke="#E2C9AA" stroke-width="0.6" stroke-linecap="round" fill="none"/><path d="M32,151 L32,157" stroke="#E2C9AA" stroke-width="0.6" stroke-linecap="round" fill="none"/><path d="M46,151 L46,157" stroke="#E2C9AA" stroke-width="0.6" stroke-linecap="round" fill="none"/><path d="M60,151 L60,157" stroke="#E2C9AA" stroke-width="0.6" stroke-linecap="round" fill="none"/><path d="M74,151 L74,157" stroke="#E2C9AA" stroke-width="0.6" stroke-linecap="round" fill="none"/><path d="M88,151 L88,157" stroke="#E2C9AA" stroke-width="0.6" stroke-linecap="round" fill="none"/><path d="M102,151 L102,157" stroke="#E2C9AA" stroke-width="0.6" stroke-linecap="round" fill="none"/><path d="M116,151 L116,157" stroke="#E2C9AA" stroke-width="0.6" stroke-linecap="round" fill="none"/><path d="M130,151 L130,157" stroke="#E2C9AA" stroke-width="0.6" stroke-linecap="round" fill="none"/><path d="M144,151 L144,157" stroke="#E2C9AA" stroke-width="0.6" stroke-linecap="round" fill="none"/><path d="M158,151 L158,157" stroke="#E2C9AA" stroke-width="0.6" stroke-linecap="round" fill="none"/><path d="M172,151 L172,157" stroke="#E2C9AA" stroke-width="0.6" stroke-linecap="round" fill="none"/><path d="M186,151 L186,157" stroke="#E2C9AA" stroke-width="0.6" stroke-linecap="round" fill="none"/><path d="M200,151 L200,157" stroke="#E2C9AA" stroke-width="0.6" stroke-linecap="round" fill="none"/><path d="M214,151 L214,157" stroke="#E2C9AA" stroke-width="0.6" stroke-linecap="round" fill="none"/><path d="M4,157 L218,157" stroke="#E2C9AA" stroke-width="0.6" stroke-linecap="round" fill="none"/><path d="M11,157 L11,159" stroke="#E2C9AA" stroke-width="0.6" stroke-linecap="round" fill="none"/><path d="M25,157 L25,159" stroke="#E2C9AA" stroke-width="0.6" stroke-linecap="round" fill="none"/><path d="M39,157 L39,159" stroke="#E2C9AA" stroke-width="0.6" stroke-linecap="round" fill="none"/><path d="M53,157 L53,159" stroke="#E2C9AA" stroke-width="0.6" stroke-linecap="round" fill="none"/><path d="M67,157 L67,159" stroke="#E2C9AA" stroke-width="0.6" stroke-linecap="round" fill="none"/><path d="M81,157 L81,159" stroke="#E2C9AA" stroke-width="0.6" stroke-linecap="round" fill="none"/><path d="M95,157 L95,159" stroke="#E2C9AA" stroke-width="0.6" stroke-linecap="round" fill="none"/><path d="M109,157 L109,159" stroke="#E2C9AA" stroke-width="0.6" stroke-linecap="round" fill="none"/><path d="M123,157 L123,159" stroke="#E2C9AA" stroke-width="0.6" stroke-linecap="round" fill="none"/><path d="M137,157 L137,159" stroke="#E2C9AA" stroke-width="0.6" stroke-linecap="round" fill="none"/><path d="M151,157 L151,159" stroke="#E2C9AA" stroke-width="0.6" stroke-linecap="round" fill="none"/><path d="M165,157 L165,159" stroke="#E2C9AA" stroke-width="0.6" stroke-linecap="round" fill="none"/><path d="M179,157 L179,159" stroke="#E2C9AA" stroke-width="0.6" stroke-linecap="round" fill="none"/><path d="M193,157 L193,159" stroke="#E2C9AA" stroke-width="0.6" stroke-linecap="round" fill="none"/><path d="M207,157 L207,159" stroke="#E2C9AA" stroke-width="0.6" stroke-linecap="round" fill="none"/><path d="M18,-13 H206 L228,32 H-4Z" fill="#6C7F92" stroke="#1F1D1B" stroke-width="1.3" stroke-linejoin="round" stroke-linecap="round"/><path d="M28.4,-12 L8.9,30" stroke="#546372" stroke-width="0.7" stroke-linecap="round" fill="none"/><path d="M29.4,-12 L9.9,30" stroke="#8f9eac" stroke-width="0.5" stroke-linecap="round" fill="none"/><path d="M38.9,-12 L21.8,30" stroke="#546372" stroke-width="0.7" stroke-linecap="round" fill="none"/><path d="M39.9,-12 L22.8,30" stroke="#8f9eac" stroke-width="0.5" stroke-linecap="round" fill="none"/><path d="M49.3,-12 L34.7,30" stroke="#546372" stroke-width="0.7" stroke-linecap="round" fill="none"/><path d="M50.3,-12 L35.7,30" stroke="#8f9eac" stroke-width="0.5" stroke-linecap="round" fill="none"/><path d="M59.8,-12 L47.6,30" stroke="#546372" stroke-width="0.7" stroke-linecap="round" fill="none"/><path d="M60.8,-12 L48.6,30" stroke="#8f9eac" stroke-width="0.5" stroke-linecap="round" fill="none"/><path d="M70.2,-12 L60.4,30" stroke="#546372" stroke-width="0.7" stroke-linecap="round" fill="none"/><path d="M71.2,-12 L61.4,30" stroke="#8f9eac" stroke-width="0.5" stroke-linecap="round" fill="none"/><path d="M80.7,-12 L73.3,30" stroke="#546372" stroke-width="0.7" stroke-linecap="round" fill="none"/><path d="M81.7,-12 L74.3,30" stroke="#8f9eac" stroke-width="0.5" stroke-linecap="round" fill="none"/><path d="M91.1,-12 L86.2,30" stroke="#546372" stroke-width="0.7" stroke-linecap="round" fill="none"/><path d="M92.1,-12 L87.2,30" stroke="#8f9eac" stroke-width="0.5" stroke-linecap="round" fill="none"/><path d="M101.6,-12 L99.1,30" stroke="#546372" stroke-width="0.7" stroke-linecap="round" fill="none"/><path d="M102.6,-12 L100.1,30" stroke="#8f9eac" stroke-width="0.5" stroke-linecap="round" fill="none"/><path d="M112,-12 L112,30" stroke="#546372" stroke-width="0.7" stroke-linecap="round" fill="none"/><path d="M113,-12 L113,30" stroke="#8f9eac" stroke-width="0.5" stroke-linecap="round" fill="none"/><path d="M122.4,-12 L124.9,30" stroke="#546372" stroke-width="0.7" stroke-linecap="round" fill="none"/><path d="M123.4,-12 L125.9,30" stroke="#8f9eac" stroke-width="0.5" stroke-linecap="round" fill="none"/><path d="M132.9,-12 L137.8,30" stroke="#546372" stroke-width="0.7" stroke-linecap="round" fill="none"/><path d="M133.9,-12 L138.8,30" stroke="#8f9eac" stroke-width="0.5" stroke-linecap="round" fill="none"/><path d="M143.3,-12 L150.7,30" stroke="#546372" stroke-width="0.7" stroke-linecap="round" fill="none"/><path d="M144.3,-12 L151.7,30" stroke="#8f9eac" stroke-width="0.5" stroke-linecap="round" fill="none"/><path d="M153.8,-12 L163.6,30" stroke="#546372" stroke-width="0.7" stroke-linecap="round" fill="none"/><path d="M154.8,-12 L164.6,30" stroke="#8f9eac" stroke-width="0.5" stroke-linecap="round" fill="none"/><path d="M164.2,-12 L176.4,30" stroke="#546372" stroke-width="0.7" stroke-linecap="round" fill="none"/><path d="M165.2,-12 L177.4,30" stroke="#8f9eac" stroke-width="0.5" stroke-linecap="round" fill="none"/><path d="M174.7,-12 L189.3,30" stroke="#546372" stroke-width="0.7" stroke-linecap="round" fill="none"/><path d="M175.7,-12 L190.3,30" stroke="#8f9eac" stroke-width="0.5" stroke-linecap="round" fill="none"/><path d="M185.1,-12 L202.2,30" stroke="#546372" stroke-width="0.7" stroke-linecap="round" fill="none"/><path d="M186.1,-12 L203.2,30" stroke="#8f9eac" stroke-width="0.5" stroke-linecap="round" fill="none"/><path d="M195.6,-12 L215.1,30" stroke="#546372" stroke-width="0.7" stroke-linecap="round" fill="none"/><path d="M196.6,-12 L216.1,30" stroke="#8f9eac" stroke-width="0.5" stroke-linecap="round" fill="none"/><rect x="-5" y="32" width="234" height="4" fill="#475460" stroke="#1F1D1B" stroke-width="0.9" stroke-linejoin="round" stroke-linecap="round"/><rect x="0" y="36" width="224" height="4" fill="#332B20" opacity="0.16"/><rect x="170" y="-40" width="16" height="32" fill="#BD8E77" stroke="#82634F" stroke-width="0.7" stroke-linejoin="round" stroke-linecap="round"/><path d="M170,-40 L186,-40" stroke="#E2C9AA" stroke-width="0.6" stroke-linecap="round" fill="none"/><path d="M184,-40 L184,-34" stroke="#E2C9AA" stroke-width="0.6" stroke-linecap="round" fill="none"/><path d="M170,-34 L186,-34" stroke="#E2C9AA" stroke-width="0.6" stroke-linecap="round" fill="none"/><path d="M177,-34 L177,-28" stroke="#E2C9AA" stroke-width="0.6" stroke-linecap="round" fill="none"/><path d="M170,-28 L186,-28" stroke="#E2C9AA" stroke-width="0.6" stroke-linecap="round" fill="none"/><path d="M184,-28 L184,-22" stroke="#E2C9AA" stroke-width="0.6" stroke-linecap="round" fill="none"/><path d="M170,-22 L186,-22" stroke="#E2C9AA" stroke-width="0.6" stroke-linecap="round" fill="none"/><path d="M177,-22 L177,-16" stroke="#E2C9AA" stroke-width="0.6" stroke-linecap="round" fill="none"/><path d="M170,-16 L186,-16" stroke="#E2C9AA" stroke-width="0.6" stroke-linecap="round" fill="none"/><path d="M184,-16 L184,-10" stroke="#E2C9AA" stroke-width="0.6" stroke-linecap="round" fill="none"/><path d="M170,-10 L186,-10" stroke="#E2C9AA" stroke-width="0.6" stroke-linecap="round" fill="none"/><path d="M177,-10 L177,-8" stroke="#E2C9AA" stroke-width="0.6" stroke-linecap="round" fill="none"/><rect x="167" y="-43" width="22" height="5" fill="#9C6E58" stroke="#1F1D1B" stroke-width="0.8" stroke-linejoin="round" stroke-linecap="round"/><path d="M72,34 V2 L112,-26 L152,2 V34Z" fill="#F4F1EA" stroke="#1F1D1B" stroke-width="1" stroke-linejoin="round" stroke-linecap="round"/><path d="M68,4 L112,-30 L156,4" fill="none" stroke="#55667A" stroke-width="3.5" stroke-linejoin="round" stroke-linecap="round"/><rect x="96" y="0" width="32" height="24" fill="#EACB89" stroke="#31594E" stroke-width="0.8" stroke-linejoin="round" stroke-linecap="round"/><path d="M98,22 L115.2,2 h6.4 L102.4,22Z" fill="#FFF0C5" opacity="0.7"/><path d="M112,0 L112,24" stroke="#F3EAD9" stroke-width="1.1" stroke-linecap="round" fill="none"/><path d="M96,13.9 L128,13.9" stroke="#F3EAD9" stroke-width="0.8" stroke-linecap="round" fill="none"/><rect x="12" y="56" width="62" height="56" fill="#E6E0D3" stroke="#1F1D1B" stroke-width="1" stroke-linejoin="round" stroke-linecap="round"/><rect x="16" y="60" width="16" height="46" fill="#EACB89" stroke="#31594E" stroke-width="0.8" stroke-linejoin="round" stroke-linecap="round"/><path d="M18,104 L25.6,62 h3.2 L19.2,104Z" fill="#FFF0C5" opacity="0.7"/><path d="M24,60 L24,106" stroke="#F3EAD9" stroke-width="1.1" stroke-linecap="round" fill="none"/><path d="M16,86.7 L32,86.7" stroke="#F3EAD9" stroke-width="0.8" stroke-linecap="round" fill="none"/><rect x="34" y="60" width="16" height="46" fill="#EACB89" stroke="#31594E" stroke-width="0.8" stroke-linejoin="round" stroke-linecap="round"/><path d="M36,104 L43.6,62 h3.2 L37.2,104Z" fill="#FFF0C5" opacity="0.7"/><path d="M42,60 L42,106" stroke="#F3EAD9" stroke-width="1.1" stroke-linecap="round" fill="none"/><path d="M34,86.7 L50,86.7" stroke="#F3EAD9" stroke-width="0.8" stroke-linecap="round" fill="none"/><rect x="52" y="60" width="16" height="46" fill="#EACB89" stroke="#31594E" stroke-width="0.8" stroke-linejoin="round" stroke-linecap="round"/><path d="M54,104 L61.6,62 h3.2 L55.2,104Z" fill="#FFF0C5" opacity="0.7"/><path d="M60,60 L60,106" stroke="#F3EAD9" stroke-width="1.1" stroke-linecap="round" fill="none"/><path d="M52,86.7 L68,86.7" stroke="#F3EAD9" stroke-width="0.8" stroke-linecap="round" fill="none"/><rect x="10" y="112" width="66" height="5" fill="#A97850" stroke="#1F1D1B" stroke-width="0.6" stroke-linejoin="round" stroke-linecap="round"/><rect x="146" y="58" width="60" height="36" fill="#EACB89" stroke="#31594E" stroke-width="0.8" stroke-linejoin="round" stroke-linecap="round"/><path d="M148,92 L182,60 h12 L158,92Z" fill="#FFF0C5" opacity="0.7"/><path d="M176,58 L176,94" stroke="#F3EAD9" stroke-width="1.1" stroke-linecap="round" fill="none"/><path d="M146,78.9 L206,78.9" stroke="#F3EAD9" stroke-width="0.8" stroke-linecap="round" fill="none"/><rect x="142" y="58" width="5" height="36" fill="#7B8FA5" stroke="#1F1D1B" stroke-width="0.4" stroke-linejoin="round" stroke-linecap="round"/><rect x="204" y="58" width="5" height="36" fill="#7B8FA5" stroke="#1F1D1B" stroke-width="0.4" stroke-linejoin="round" stroke-linecap="round"/><path d="M82,94 L112,78 L142,94Z" fill="#55667A" stroke="#1F1D1B" stroke-width="1" stroke-linejoin="round" stroke-linecap="round"/><rect x="84" y="94" width="4" height="62" fill="#FFFFFF" stroke="#1F1D1B" stroke-width="0.7" stroke-linejoin="round" stroke-linecap="round"/><rect x="136" y="94" width="4" height="62" fill="#FFFFFF" stroke="#1F1D1B" stroke-width="0.7" stroke-linejoin="round" stroke-linecap="round"/><rect x="96" y="100" width="32" height="58" fill="#A97850" stroke="#1F1D1B" stroke-width="0.9" stroke-linejoin="round" stroke-linecap="round"/><rect x="99" y="103" width="26" height="51" fill="#EACB89" stroke="#31594E" stroke-width="0.8" stroke-linejoin="round" stroke-linecap="round"/><path d="M101,152 L114.6,105 h5.2 L104.2,152Z" fill="#FFF0C5" opacity="0.7"/><path d="M112,103 L112,154" stroke="#F3EAD9" stroke-width="1.1" stroke-linecap="round" fill="none"/><path d="M99,132.6 L125,132.6" stroke="#F3EAD9" stroke-width="0.8" stroke-linecap="round" fill="none"/><path d="M112,104 L112,154" stroke="#31594E" stroke-width="1.2" stroke-linecap="round" fill="none"/><path d="M120,128 L120,136" stroke="#BC795C" stroke-width="1.4" stroke-linecap="round" fill="none"/><rect x="92" y="156" width="40" height="3" fill="#CCC2AA" stroke="#1F1D1B" stroke-width="0.6" stroke-linejoin="round" stroke-linecap="round"/><rect x="174" y="148" width="30" height="10" fill="#C59A76" stroke="#1F1D1B" stroke-width="0.7" stroke-linejoin="round" stroke-linecap="round"/><path d="M174,148 l3,-4 h24 l3,4Z" fill="#E0BD97" stroke="#1F1D1B" stroke-width="0.6" stroke-linejoin="round" stroke-linecap="round"/><rect x="177" y="145" width="24" height="3" fill="#716C4C"/><path d="M180,151 L180,139" stroke="#5B7D51" stroke-width="0.8" stroke-linecap="round" fill="none"/><ellipse cx="177" cy="146" rx="3" ry="1.3" fill="#87A269"/><ellipse cx="183" cy="143" rx="3" ry="1.3" fill="#73925A"/><circle cx="180" cy="143.6" r="1.9" fill="#D79AAF" stroke="#a17483" stroke-width="0.3" stroke-linejoin="round" stroke-linecap="round"/><circle cx="182.5" cy="141.8" r="1.9" fill="#D79AAF" stroke="#a17483" stroke-width="0.3" stroke-linejoin="round" stroke-linecap="round"/><circle cx="181.5" cy="138.9" r="1.9" fill="#D79AAF" stroke="#a17483" stroke-width="0.3" stroke-linejoin="round" stroke-linecap="round"/><circle cx="178.5" cy="138.9" r="1.9" fill="#D79AAF" stroke="#a17483" stroke-width="0.3" stroke-linejoin="round" stroke-linecap="round"/><circle cx="177.5" cy="141.8" r="1.9" fill="#D79AAF" stroke="#a17483" stroke-width="0.3" stroke-linejoin="round" stroke-linecap="round"/><circle cx="180" cy="141" r="1" fill="#F5D88B"/><path d="M188,147 L188,135" stroke="#5B7D51" stroke-width="0.8" stroke-linecap="round" fill="none"/><ellipse cx="185" cy="142" rx="3" ry="1.3" fill="#87A269"/><ellipse cx="191" cy="139" rx="3" ry="1.3" fill="#73925A"/><circle cx="188" cy="139.6" r="1.9" fill="#D79AAF" stroke="#a17483" stroke-width="0.3" stroke-linejoin="round" stroke-linecap="round"/><circle cx="190.5" cy="137.8" r="1.9" fill="#D79AAF" stroke="#a17483" stroke-width="0.3" stroke-linejoin="round" stroke-linecap="round"/><circle cx="189.5" cy="134.9" r="1.9" fill="#D79AAF" stroke="#a17483" stroke-width="0.3" stroke-linejoin="round" stroke-linecap="round"/><circle cx="186.5" cy="134.9" r="1.9" fill="#D79AAF" stroke="#a17483" stroke-width="0.3" stroke-linejoin="round" stroke-linecap="round"/><circle cx="185.5" cy="137.8" r="1.9" fill="#D79AAF" stroke="#a17483" stroke-width="0.3" stroke-linejoin="round" stroke-linecap="round"/><circle cx="188" cy="137" r="1" fill="#F5D88B"/><path d="M196,149 L196,137" stroke="#5B7D51" stroke-width="0.8" stroke-linecap="round" fill="none"/><ellipse cx="193" cy="144" rx="3" ry="1.3" fill="#87A269"/><ellipse cx="199" cy="141" rx="3" ry="1.3" fill="#73925A"/><circle cx="196" cy="141.6" r="1.9" fill="#D79AAF" stroke="#a17483" stroke-width="0.3" stroke-linejoin="round" stroke-linecap="round"/><circle cx="198.5" cy="139.8" r="1.9" fill="#D79AAF" stroke="#a17483" stroke-width="0.3" stroke-linejoin="round" stroke-linecap="round"/><circle cx="197.5" cy="136.9" r="1.9" fill="#D79AAF" stroke="#a17483" stroke-width="0.3" stroke-linejoin="round" stroke-linecap="round"/><circle cx="194.5" cy="136.9" r="1.9" fill="#D79AAF" stroke="#a17483" stroke-width="0.3" stroke-linejoin="round" stroke-linecap="round"/><circle cx="193.5" cy="139.8" r="1.9" fill="#D79AAF" stroke="#a17483" stroke-width="0.3" stroke-linejoin="round" stroke-linecap="round"/><circle cx="196" cy="139" r="1" fill="#F5D88B"/><path d="M78,100 L78,109" stroke="#31594E" stroke-width="1" stroke-linecap="round" fill="none"/><path d="M74,110 l2,-5 h4 l2,5Z" fill="#648975" stroke="#1F1D1B" stroke-width="0.7" stroke-linejoin="round" stroke-linecap="round"/><rect x="75" y="110" width="6" height="8" fill="#F7D589" stroke="#1F1D1B" stroke-width="0.6" stroke-linejoin="round" stroke-linecap="round"/><path d="M74,118 L82,118" stroke="#31594E" stroke-width="1" stroke-linecap="round" fill="none"/></svg>