<svg xmlns="http://www.w3.org/2000/svg" viewBox="-10 -49 217 189" width="217" height="189" role="img" aria-label="くるりクレープ"><path d="M186,27 l13,9 V135 H13 L3,125Z" fill="#312619" opacity="0.14"/><rect x="4" y="28" width="182" height="99" fill="#F3EAD9" stroke="#1F1D1B" stroke-width="1.2" stroke-linejoin="round" stroke-linecap="round"/><path d="M186,28 l6,-6 V122 l-6,5Z" fill="#c7c0b2" stroke="#1F1D1B" stroke-width="0.8" stroke-linejoin="round" stroke-linecap="round"/><path d="M6,35 L184,35" stroke="#d3ccbd" stroke-width="0.45" stroke-linecap="round" fill="none"/><path d="M6,44 L184,44" stroke="#d3ccbd" stroke-width="0.45" stroke-linecap="round" fill="none"/><path d="M6,53 L184,53" stroke="#d3ccbd" stroke-width="0.45" stroke-linecap="round" fill="none"/><path d="M6,62 L184,62" stroke="#d3ccbd" stroke-width="0.45" stroke-linecap="round" fill="none"/><path d="M6,71 L184,71" stroke="#d3ccbd" stroke-width="0.45" stroke-linecap="round" fill="none"/><path d="M6,80 L184,80" stroke="#d3ccbd" stroke-width="0.45" stroke-linecap="round" fill="none"/><path d="M6,89 L184,89" stroke="#d3ccbd" stroke-width="0.45" stroke-linecap="round" fill="none"/><path d="M6,98 L184,98" stroke="#d3ccbd" stroke-width="0.45" stroke-linecap="round" fill="none"/><path d="M6,107 L184,107" stroke="#d3ccbd" stroke-width="0.45" stroke-linecap="round" fill="none"/><rect x="4" y="107" width="182" height="20" fill="#BD8E77" stroke="#82634F" stroke-width="0.7" stroke-linejoin="round" stroke-linecap="round"/><path d="M4,107 L186,107" stroke="#E2C9AA" stroke-width="0.6" stroke-linecap="round" fill="none"/><path d="M18,107 L18,113" stroke="#E2C9AA" stroke-width="0.6" stroke-linecap="round" fill="none"/><path d="M32,107 L32,113" stroke="#E2C9AA" stroke-width="0.6" stroke-linecap="round" fill="none"/><path d="M46,107 L46,113" stroke="#E2C9AA" stroke-width="0.6" stroke-linecap="round" fill="none"/><path d="M60,107 L60,113" stroke="#E2C9AA" stroke-width="0.6" stroke-linecap="round" fill="none"/><path d="M74,107 L74,113" stroke="#E2C9AA" stroke-width="0.6" stroke-linecap="round" fill="none"/><path d="M88,107 L88,113" stroke="#E2C9AA" stroke-width="0.6" stroke-linecap="round" fill="none"/><path d="M102,107 L102,113" stroke="#E2C9AA" stroke-width="0.6" stroke-linecap="round" fill="none"/><path d="M116,107 L116,113" stroke="#E2C9AA" stroke-width="0.6" stroke-linecap="round" fill="none"/><path d="M130,107 L130,113" stroke="#E2C9AA" stroke-width="0.6" stroke-linecap="round" fill="none"/><path d="M144,107 L144,113" stroke="#E2C9AA" stroke-width="0.6" stroke-linecap="round" fill="none"/><path d="M158,107 L158,113" stroke="#E2C9AA" stroke-width="0.6" stroke-linecap="round" fill="none"/><path d="M172,107 L172,113" stroke="#E2C9AA" stroke-width="0.6" stroke-linecap="round" fill="none"/><path d="M4,113 L186,113" stroke="#E2C9AA" stroke-width="0.6" stroke-linecap="round" fill="none"/><path d="M11,113 L11,119" stroke="#E2C9AA" stroke-width="0.6" stroke-linecap="round" fill="none"/><path d="M25,113 L25,119" stroke="#E2C9AA" stroke-width="0.6" stroke-linecap="round" fill="none"/><path d="M39,113 L39,119" stroke="#E2C9AA" stroke-width="0.6" stroke-linecap="round" fill="none"/><path d="M53,113 L53,119" stroke="#E2C9AA" stroke-width="0.6" stroke-linecap="round" fill="none"/><path d="M67,113 L67,119" stroke="#E2C9AA" stroke-width="0.6" stroke-linecap="round" fill="none"/><path d="M81,113 L81,119" stroke="#E2C9AA" stroke-width="0.6" stroke-linecap="round" fill="none"/><path d="M95,113 L95,119" stroke="#E2C9AA" stroke-width="0.6" stroke-linecap="round" fill="none"/><path d="M109,113 L109,119" stroke="#E2C9AA" stroke-width="0.6" stroke-linecap="round" fill="none"/><path d="M123,113 L123,119" stroke="#E2C9AA" stroke-width="0.6" stroke-linecap="round" fill="none"/><path d="M137,113 L137,119" stroke="#E2C9AA" stroke-width="0.6" stroke-linecap="round" fill="none"/><path d="M151,113 L151,119" stroke="#E2C9AA" stroke-width="0.6" stroke-linecap="round" fill="none"/><path d="M165,113 L165,119" stroke="#E2C9AA" stroke-width="0.6" stroke-linecap="round" fill="none"/><path d="M4,119 L186,119" stroke="#E2C9AA" stroke-width="0.6" stroke-linecap="round" fill="none"/><path d="M18,119 L18,125" stroke="#E2C9AA" stroke-width="0.6" stroke-linecap="round" fill="none"/><path d="M32,119 L32,125" stroke="#E2C9AA" stroke-width="0.6" stroke-linecap="round" fill="none"/><path d="M46,119 L46,125" stroke="#E2C9AA" stroke-width="0.6" stroke-linecap="round" fill="none"/><path d="M60,119 L60,125" stroke="#E2C9AA" stroke-width="0.6" stroke-linecap="round" fill="none"/><path d="M74,119 L74,125" stroke="#E2C9AA" stroke-width="0.6" stroke-linecap="round" fill="none"/><path d="M88,119 L88,125" stroke="#E2C9AA" stroke-width="0.6" stroke-linecap="round" fill="none"/><path d="M102,119 L102,125" stroke="#E2C9AA" stroke-width="0.6" stroke-linecap="round" fill="none"/><path d="M116,119 L116,125" stroke="#E2C9AA" stroke-width="0.6" stroke-linecap="round" fill="none"/><path d="M130,119 L130,125" stroke="#E2C9AA" stroke-width="0.6" stroke-linecap="round" fill="none"/><path d="M144,119 L144,125" stroke="#E2C9AA" stroke-width="0.6" stroke-linecap="round" fill="none"/><path d="M158,119 L158,125" stroke="#E2C9AA" stroke-width="0.6" stroke-linecap="round" fill="none"/><path d="M172,119 L172,125" stroke="#E2C9AA" stroke-width="0.6" stroke-linecap="round" fill="none"/><path d="M4,125 L186,125" stroke="#E2C9AA" stroke-width="0.6" stroke-linecap="round" fill="none"/><path d="M11,125 L11,127" stroke="#E2C9AA" stroke-width="0.6" stroke-linecap="round" fill="none"/><path d="M25,125 L25,127" stroke="#E2C9AA" stroke-width="0.6" stroke-linecap="round" fill="none"/><path d="M39,125 L39,127" stroke="#E2C9AA" stroke-width="0.6" stroke-linecap="round" fill="none"/><path d="M53,125 L53,127" stroke="#E2C9AA" stroke-width="0.6" stroke-linecap="round" fill="none"/><path d="M67,125 L67,127" stroke="#E2C9AA" stroke-width="0.6" stroke-linecap="round" fill="none"/><path d="M81,125 L81,127" stroke="#E2C9AA" stroke-width="0.6" stroke-linecap="round" fill="none"/><path d="M95,125 L95,127" stroke="#E2C9AA" stroke-width="0.6" stroke-linecap="round" fill="none"/><path d="M109,125 L109,127" stroke="#E2C9AA" stroke-width="0.6" stroke-linecap="round" fill="none"/><path d="M123,125 L123,127" stroke="#E2C9AA" stroke-width="0.6" stroke-linecap="round" fill="none"/><path d="M137,125 L137,127" stroke="#E2C9AA" stroke-width="0.6" stroke-linecap="round" fill="none"/><path d="M151,125 L151,127" stroke="#E2C9AA" stroke-width="0.6" stroke-linecap="round" fill="none"/><path d="M165,125 L165,127" stroke="#E2C9AA" stroke-width="0.6" stroke-linecap="round" fill="none"/><path d="M-3,33 Q-3,-15 96,-15 Q195,-15 195,33Z" fill="#BB8595" stroke="#1F1D1B" stroke-width="1.3" stroke-linejoin="round" stroke-linecap="round"/><path d="M10,8 L10,31" stroke="#d1acb7" stroke-width="0.7" stroke-linecap="round" fill="none"/><path d="M26,-3 L26,31" stroke="#d1acb7" stroke-width="0.7" stroke-linecap="round" fill="none"/><path d="M42,-8.5 L42,31" stroke="#d1acb7" stroke-width="0.7" stroke-linecap="round" fill="none"/><path d="M58,-11.6 L58,31" stroke="#d1acb7" stroke-width="0.7" stroke-linecap="round" fill="none"/><path d="M74,-13.3 L74,31" stroke="#d1acb7" stroke-width="0.7" stroke-linecap="round" fill="none"/><path d="M90,-14 L90,31" stroke="#d1acb7" stroke-width="0.7" stroke-linecap="round" fill="none"/><path d="M106,-13.9 L106,31" stroke="#d1acb7" stroke-width="0.7" stroke-linecap="round" fill="none"/><path d="M122,-13 L122,31" stroke="#d1acb7" stroke-width="0.7" stroke-linecap="round" fill="none"/><path d="M138,-11 L138,31" stroke="#d1acb7" stroke-width="0.7" stroke-linecap="round" fill="none"/><path d="M154,-7.4 L154,31" stroke="#d1acb7" stroke-width="0.7" stroke-linecap="round" fill="none"/><path d="M170,-1 L170,31" stroke="#d1acb7" stroke-width="0.7" stroke-linecap="round" fill="none"/><path d="M186,13 L186,31" stroke="#d1acb7" stroke-width="0.7" stroke-linecap="round" fill="none"/><rect x="-3" y="33" width="198" height="4" fill="#8c6470" stroke="#1F1D1B" stroke-width="0.8" stroke-linejoin="round" stroke-linecap="round"/><circle cx="96" cy="9" r="15" fill="#F3EAD9" stroke="#1F1D1B" stroke-width="0.8" stroke-linejoin="round" stroke-linecap="round"/><path d="M89,4 h14 l-7,17Z" fill="#DCB883" stroke="#1F1D1B" stroke-width="0.6" stroke-linejoin="round" stroke-linecap="round"/><ellipse cx="96" cy="4" rx="8" ry="4" fill="#FFF7DC" stroke="#1F1D1B" stroke-width="0.6" stroke-linejoin="round" stroke-linecap="round"/><circle cx="95" cy="0" r="2.5" fill="#C97980" stroke="#1F1D1B" stroke-width="0.4" stroke-linejoin="round" stroke-linecap="round"/><rect x="14" y="69" width="74" height="34" fill="#EACB89" stroke="#31594E" stroke-width="0.8" stroke-linejoin="round" stroke-linecap="round"/><path d="M16,101 L58.4,71 h14.8 L28.8,101Z" fill="#FFF0C5" opacity="0.7"/><path d="M51,69 L51,103" stroke="#F3EAD9" stroke-width="1.1" stroke-linecap="round" fill="none"/><path d="M14,88.7 L88,88.7" stroke="#F3EAD9" stroke-width="0.8" stroke-linecap="round" fill="none"/><rect x="16" y="85" width="70" height="3" fill="#A97850"/><rect x="16" y="103" width="70" height="3" fill="#A97850"/><rect x="138" y="69" width="40" height="34" fill="#EACB89" stroke="#31594E" stroke-width="0.8" stroke-linejoin="round" stroke-linecap="round"/><path d="M140,101 L162,71 h8 L146,101Z" fill="#FFF0C5" opacity="0.7"/><path d="M158,69 L158,103" stroke="#F3EAD9" stroke-width="1.1" stroke-linecap="round" fill="none"/><path d="M138,88.7 L178,88.7" stroke="#F3EAD9" stroke-width="0.8" stroke-linecap="round" fill="none"/><rect x="140" y="85" width="36" height="3" fill="#A97850"/><rect x="140" y="103" width="36" height="3" fill="#A97850"/><path d="M13,61 h166 l5,12 h-176Z" fill="#F3EAD9" stroke="#1F1D1B" stroke-width="0.8" stroke-linejoin="round" stroke-linecap="round"/><path d="M14,62 h7 l1,10 h-9Z" fill="#BB8595"/><path d="M28,62 h7 l1,10 h-9Z" fill="#BB8595"/><path d="M42,62 h7 l1,10 h-9Z" fill="#BB8595"/><path d="M56,62 h7 l1,10 h-9Z" fill="#BB8595"/><path d="M70,62 h7 l1,10 h-9Z" fill="#BB8595"/><path d="M84,62 h7 l1,10 h-9Z" fill="#BB8595"/><path d="M98,62 h7 l1,10 h-9Z" fill="#BB8595"/><path d="M112,62 h7 l1,10 h-9Z" fill="#BB8595"/><path d="M126,62 h7 l1,10 h-9Z" fill="#BB8595"/><path d="M140,62 h7 l1,10 h-9Z" fill="#BB8595"/><path d="M154,62 h7 l1,10 h-9Z" fill="#BB8595"/><path d="M168,62 h7 l1,10 h-9Z" fill="#BB8595"/><rect x="8" y="73" width="176" height="5" fill="#BB8595" stroke="#1F1D1B" stroke-width="0.5" stroke-linejoin="round" stroke-linecap="round"/><path d="M14,79 L18,73" stroke="#A97850" stroke-width="1" stroke-linecap="round" fill="none"/><path d="M178,79 L174,73" stroke="#A97850" stroke-width="1" stroke-linecap="round" fill="none"/><path d="M18,80 h14 l-7,20Z" fill="#E2BD85" stroke="#1F1D1B" stroke-width="0.6" stroke-linejoin="round" stroke-linecap="round"/><ellipse cx="25" cy="80" rx="8" ry="4" fill="#FFF0D0" stroke="#1F1D1B" stroke-width="0.6" stroke-linejoin="round" stroke-linecap="round"/><circle cx="23" cy="77" r="2.5" fill="#C68283" stroke="#1F1D1B" stroke-width="0.4" stroke-linejoin="round" stroke-linecap="round"/><path d="M41,80 h14 l-7,20Z" fill="#E2BD85" stroke="#1F1D1B" stroke-width="0.6" stroke-linejoin="round" stroke-linecap="round"/><ellipse cx="48" cy="80" rx="8" ry="4" fill="#FFF0D0" stroke="#1F1D1B" stroke-width="0.6" stroke-linejoin="round" stroke-linecap="round"/><circle cx="46" cy="77" r="2.5" fill="#C68283" stroke="#1F1D1B" stroke-width="0.4" stroke-linejoin="round" stroke-linecap="round"/><path d="M64,80 h14 l-7,20Z" fill="#E2BD85" stroke="#1F1D1B" stroke-width="0.6" stroke-linejoin="round" stroke-linecap="round"/><ellipse cx="71" cy="80" rx="8" ry="4" fill="#FFF0D0" stroke="#1F1D1B" stroke-width="0.6" stroke-linejoin="round" stroke-linecap="round"/><circle cx="69" cy="77" r="2.5" fill="#C68283" stroke="#1F1D1B" stroke-width="0.4" stroke-linejoin="round" stroke-linecap="round"/><path d="M142,80 h14 l-7,20Z" fill="#E2BD85" stroke="#1F1D1B" stroke-width="0.6" stroke-linejoin="round" stroke-linecap="round"/><ellipse cx="149" cy="80" rx="8" ry="4" fill="#FFF0D0" stroke="#1F1D1B" stroke-width="0.6" stroke-linejoin="round" stroke-linecap="round"/><circle cx="147" cy="77" r="2.5" fill="#C68283" stroke="#1F1D1B" stroke-width="0.4" stroke-linejoin="round" stroke-linecap="round"/><rect x="93" y="68" width="38" height="58" fill="#A97850" stroke="#1F1D1B" stroke-width="0.9" stroke-linejoin="round" stroke-linecap="round"/><rect x="96" y="71" width="32" height="51" fill="#EACB89" stroke="#31594E" stroke-width="0.8" stroke-linejoin="round" stroke-linecap="round"/><path d="M98,120 L115.2,73 h6.4 L102.4,120Z" fill="#FFF0C5" opacity="0.7"/><path d="M112,71 L112,122" stroke="#F3EAD9" stroke-width="1.1" stroke-linecap="round" fill="none"/><path d="M96,100.6 L128,100.6" stroke="#F3EAD9" stroke-width="0.8" stroke-linecap="round" fill="none"/><path d="M112,72 L112,122" stroke="#31594E" stroke-width="1.2" stroke-linecap="round" fill="none"/><path d="M123,96 L123,104" stroke="#BC795C" stroke-width="1.4" stroke-linecap="round" fill="none"/><rect x="89" y="124" width="46" height="3" fill="#CCC2AA" stroke="#1F1D1B" stroke-width="0.6" stroke-linejoin="round" stroke-linecap="round"/><rect x="54" y="35" width="116" height="23" rx="2" fill="#BB8595" stroke="#1F1D1B" stroke-width="0.8" stroke-linejoin="round" stroke-linecap="round"/><path d="M56,37 L168,37" stroke="#dabcc5" stroke-width="0.6" stroke-linecap="round" fill="none"/><text x="112" y="46" font-size="10" font-weight="800" fill="#F3EAD9" text-anchor="middle" font-family="'Noto Sans CJK JP','Noto Sans JP',sans-serif">くるり クレープ</text><text x="112" y="54" font-size="4.8" font-weight="800" fill="#E6D6B0" text-anchor="middle" font-family="'Noto Sans CJK JP','Noto Sans JP',sans-serif" letter-spacing="1">CREPE &amp; DEZA</text><path d="M6,35 L6,119" stroke="#BC795C" stroke-width="1.6" stroke-linecap="round" fill="none"/><path d="M182,35 L182,118" stroke="#BC795C" stroke-width="1.6" stroke-linecap="round" fill="none"/><path d="M6,119 l4,5 M182,118 l-4,5" fill="none" stroke="#BC795C" stroke-width="1.6" stroke-linejoin="round" stroke-linecap="round"/><path d="M88,68 L88,77" stroke="#31594E" stroke-width="1" stroke-linecap="round" fill="none"/><path d="M84,78 l2,-5 h4 l2,5Z" fill="#648975" stroke="#1F1D1B" stroke-width="0.7" stroke-linejoin="round" stroke-linecap="round"/><rect x="85" y="78" width="6" height="8" fill="#F7D589" stroke="#1F1D1B" stroke-width="0.6" stroke-linejoin="round" stroke-linecap="round"/><path d="M84,86 L92,86" stroke="#31594E" stroke-width="1" stroke-linecap="round" fill="none"/><rect x="13" y="115" width="30" height="10" fill="#C59A76" stroke="#1F1D1B" stroke-width="0.7" stroke-linejoin="round" stroke-linecap="round"/><path d="M13,115 l3,-4 h24 l3,4Z" fill="#E0BD97" stroke="#1F1D1B" stroke-width="0.6" stroke-linejoin="round" stroke-linecap="round"/><rect x="16" y="112" width="24" height="3" fill="#716C4C"/><path d="M19,118 L19,106" stroke="#5B7D51" stroke-width="0.8" stroke-linecap="round" fill="none"/><ellipse cx="16" cy="113" rx="3" ry="1.3" fill="#87A269"/><ellipse cx="22" cy="110" rx="3" ry="1.3" fill="#73925A"/><circle cx="19" cy="110.6" r="1.9" fill="#D79AAF" stroke="#a17483" stroke-width="0.3" stroke-linejoin="round" stroke-linecap="round"/><circle cx="21.5" cy="108.8" r="1.9" fill="#D79AAF" stroke="#a17483" stroke-width="0.3" stroke-linejoin="round" stroke-linecap="round"/><circle cx="20.5" cy="105.9" r="1.9" fill="#D79AAF" stroke="#a17483" stroke-width="0.3" stroke-linejoin="round" stroke-linecap="round"/><circle cx="17.5" cy="105.9" r="1.9" fill="#D79AAF" stroke="#a17483" stroke-width="0.3" stroke-linejoin="round" stroke-linecap="round"/><circle cx="16.5" cy="108.8" r="1.9" fill="#D79AAF" stroke="#a17483" stroke-width="0.3" stroke-linejoin="round" stroke-linecap="round"/><circle cx="19" cy="108" r="1" fill="#F5D88B"/><path d="M27,114 L27,102" stroke="#5B7D51" stroke-width="0.8" stroke-linecap="round" fill="none"/><ellipse cx="24" cy="109" rx="3" ry="1.3" fill="#87A269"/><ellipse cx="30" cy="106" rx="3" ry="1.3" fill="#73925A"/><circle cx="27" cy="106.6" r="1.9" fill="#D79AAF" stroke="#a17483" stroke-width="0.3" stroke-linejoin="round" stroke-linecap="round"/><circle cx="29.5" cy="104.8" r="1.9" fill="#D79AAF" stroke="#a17483" stroke-width="0.3" stroke-linejoin="round" stroke-linecap="round"/><circle cx="28.5" cy="101.9" r="1.9" fill="#D79AAF" stroke="#a17483" stroke-width="0.3" stroke-linejoin="round" stroke-linecap="round"/><circle cx="25.5" cy="101.9" r="1.9" fill="#D79AAF" stroke="#a17483" stroke-width="0.3" stroke-linejoin="round" stroke-linecap="round"/><circle cx="24.5" cy="104.8" r="1.9" fill="#D79AAF" stroke="#a17483" stroke-width="0.3" stroke-linejoin="round" stroke-linecap="round"/><circle cx="27" cy="104" r="1" fill="#F5D88B"/><path d="M35,116 L35,104" stroke="#5B7D51" stroke-width="0.8" stroke-linecap="round" fill="none"/><ellipse cx="32" cy="111" rx="3" ry="1.3" fill="#87A269"/><ellipse cx="38" cy="108" rx="3" ry="1.3" fill="#73925A"/><circle cx="35" cy="108.6" r="1.9" fill="#D79AAF" stroke="#a17483" stroke-width="0.3" stroke-linejoin="round" stroke-linecap="round"/><circle cx="37.5" cy="106.8" r="1.9" fill="#D79AAF" stroke="#a17483" stroke-width="0.3" stroke-linejoin="round" stroke-linecap="round"/><circle cx="36.5" cy="103.9" r="1.9" fill="#D79AAF" stroke="#a17483" stroke-width="0.3" stroke-linejoin="round" stroke-linecap="round"/><circle cx="33.5" cy="103.9" r="1.9" fill="#D79AAF" stroke="#a17483" stroke-width="0.3" stroke-linejoin="round" stroke-linecap="round"/><circle cx="32.5" cy="106.8" r="1.9" fill="#D79AAF" stroke="#a17483" stroke-width="0.3" stroke-linejoin="round" stroke-linecap="round"/><circle cx="35" cy="106" r="1" fill="#F5D88B"/></svg>