<svg xmlns="http://www.w3.org/2000/svg" viewBox="-9 -8 180 112" width="180" height="112" role="img" aria-label="屋根付き駐輪場"><rect x="0" y="51" width="160" height="42" fill="#CBCABB" stroke="#1F1D1B" stroke-width="0.8" stroke-linejoin="round" stroke-linecap="round"/><ellipse cx="31" cy="90" rx="22" ry="3" fill="#334C3E" opacity="0.12"/><g transform="translate(8,61) scale(.75)"><circle cx="11" cy="26" r="10" fill="#D2D7CA" stroke="#404846" stroke-width="2.2" stroke-linejoin="round" stroke-linecap="round"/><circle cx="11" cy="26" r="8" fill="none" stroke="#EEECE0" stroke-width="0.6" stroke-linejoin="round" stroke-linecap="round"/><path d="M11,26 L18.4,26" stroke="#89958D" stroke-width="0.45" stroke-linecap="round" fill="none"/><path d="M11,26 L16.2,31.2" stroke="#89958D" stroke-width="0.45" stroke-linecap="round" fill="none"/><path d="M11,26 L11,33.4" stroke="#89958D" stroke-width="0.45" stroke-linecap="round" fill="none"/><path d="M11,26 L5.8,31.2" stroke="#89958D" stroke-width="0.45" stroke-linecap="round" fill="none"/><path d="M11,26 L3.6,26" stroke="#89958D" stroke-width="0.45" stroke-linecap="round" fill="none"/><path d="M11,26 L5.8,20.8" stroke="#89958D" stroke-width="0.45" stroke-linecap="round" fill="none"/><path d="M11,26 L11,18.6" stroke="#89958D" stroke-width="0.45" stroke-linecap="round" fill="none"/><path d="M11,26 L16.2,20.8" stroke="#89958D" stroke-width="0.45" stroke-linecap="round" fill="none"/><circle cx="11" cy="26" r="1.5" fill="#D6D9CC" stroke="#1F1D1B" stroke-width="0.6" stroke-linejoin="round" stroke-linecap="round"/><circle cx="47" cy="26" r="10" fill="#D2D7CA" stroke="#404846" stroke-width="2.2" stroke-linejoin="round" stroke-linecap="round"/><circle cx="47" cy="26" r="8" fill="none" stroke="#EEECE0" stroke-width="0.6" stroke-linejoin="round" stroke-linecap="round"/><path d="M47,26 L54.4,26" stroke="#89958D" stroke-width="0.45" stroke-linecap="round" fill="none"/><path d="M47,26 L52.2,31.2" stroke="#89958D" stroke-width="0.45" stroke-linecap="round" fill="none"/><path d="M47,26 L47,33.4" stroke="#89958D" stroke-width="0.45" stroke-linecap="round" fill="none"/><path d="M47,26 L41.8,31.2" stroke="#89958D" stroke-width="0.45" stroke-linecap="round" fill="none"/><path d="M47,26 L39.6,26" stroke="#89958D" stroke-width="0.45" stroke-linecap="round" fill="none"/><path d="M47,26 L41.8,20.8" stroke="#89958D" stroke-width="0.45" stroke-linecap="round" fill="none"/><path d="M47,26 L47,18.6" stroke="#89958D" stroke-width="0.45" stroke-linecap="round" fill="none"/><path d="M47,26 L52.2,20.8" stroke="#89958D" stroke-width="0.45" stroke-linecap="round" fill="none"/><circle cx="47" cy="26" r="1.5" fill="#D6D9CC" stroke="#1F1D1B" stroke-width="0.6" stroke-linejoin="round" stroke-linecap="round"/><path d="M11,26 L21,12 L29,26 L11,26 M21,12 L41,12 L29,26 M41,12 L47,26 M41,12 L39,6 L44,5" fill="none" stroke="#1F1D1B" stroke-width="3.2" stroke-linejoin="round" stroke-linecap="round"/><path d="M11,26 L21,12 L29,26 L11,26 M21,12 L41,12 L29,26 M41,12 L47,26 M41,12 L39,6 L44,5" fill="none" stroke="#608C81" stroke-width="2" stroke-linejoin="round" stroke-linecap="round"/><path d="M5,20 Q11,12 18,19 M41,20 Q47,12 54,20" fill="none" stroke="#C6CECA" stroke-width="1.4" stroke-linejoin="round" stroke-linecap="round"/><path d="M20,12 L19,7" stroke="#1F1D1B" stroke-width="1.2" stroke-linecap="round" fill="none"/><rect x="14" y="5" width="11" height="3" rx="1.4" fill="#5A4B40" stroke="#1F1D1B" stroke-width="0.8" stroke-linejoin="round" stroke-linecap="round"/><circle cx="29" cy="26" r="3.1" fill="#F3EAD9" stroke="#1F1D1B" stroke-width="0.7" stroke-linejoin="round" stroke-linecap="round"/><path d="M29,26 L33,29" stroke="#859491" stroke-width="1.2" stroke-linecap="round" fill="none"/><path d="M31,30 L35,30" stroke="#1F1D1B" stroke-width="1.1" stroke-linecap="round" fill="none"/><rect x="42" y="2" width="14" height="10" fill="#C3CCBF" stroke="#1F1D1B" stroke-width="0.8" stroke-linejoin="round" stroke-linecap="round"/><path d="M42,2 L45,-1 L58,-1 L56,2 Z" fill="#E0E5DA" stroke="#1F1D1B" stroke-width="0.7" stroke-linejoin="round" stroke-linecap="round"/><path d="M45,3 L45,11" stroke="#718276" stroke-width="0.5" stroke-linecap="round" fill="none"/><path d="M48,3 L48,11" stroke="#718276" stroke-width="0.5" stroke-linecap="round" fill="none"/><path d="M51,3 L51,11" stroke="#718276" stroke-width="0.5" stroke-linecap="round" fill="none"/><path d="M54,3 L54,11" stroke="#718276" stroke-width="0.5" stroke-linecap="round" fill="none"/><path d="M42,7 L56,7" stroke="#718276" stroke-width="0.5" stroke-linecap="round" fill="none"/><circle cx="50" cy="13" r="1.7" fill="#FFF6CD" stroke="#1F1D1B" stroke-width="0.6" stroke-linejoin="round" stroke-linecap="round"/><path d="M6,12 L18,12" stroke="#31594E" stroke-width="1.3" stroke-linecap="round" fill="none"/><path d="M8,13 L10,18" stroke="#31594E" stroke-width="0.8" stroke-linecap="round" fill="none"/><rect x="2" y="19" width="2" height="4" fill="#CA6C53" stroke="#1F1D1B" stroke-width="0.5" stroke-linejoin="round" stroke-linecap="round"/></g><path d="M12,89 v-8 q0,-4 4,-4 v12" fill="none" stroke="#83978A" stroke-width="1.1" stroke-linejoin="round" stroke-linecap="round"/><ellipse cx="80" cy="90" rx="22" ry="3" fill="#334C3E" opacity="0.12"/><g transform="translate(57,61) scale(.75)"><circle cx="11" cy="26" r="10" fill="#D2D7CA" stroke="#404846" stroke-width="2.2" stroke-linejoin="round" stroke-linecap="round"/><circle cx="11" cy="26" r="8" fill="none" stroke="#EEECE0" stroke-width="0.6" stroke-linejoin="round" stroke-linecap="round"/><path d="M11,26 L18.4,26" stroke="#89958D" stroke-width="0.45" stroke-linecap="round" fill="none"/><path d="M11,26 L16.2,31.2" stroke="#89958D" stroke-width="0.45" stroke-linecap="round" fill="none"/><path d="M11,26 L11,33.4" stroke="#89958D" stroke-width="0.45" stroke-linecap="round" fill="none"/><path d="M11,26 L5.8,31.2" stroke="#89958D" stroke-width="0.45" stroke-linecap="round" fill="none"/><path d="M11,26 L3.6,26" stroke="#89958D" stroke-width="0.45" stroke-linecap="round" fill="none"/><path d="M11,26 L5.8,20.8" stroke="#89958D" stroke-width="0.45" stroke-linecap="round" fill="none"/><path d="M11,26 L11,18.6" stroke="#89958D" stroke-width="0.45" stroke-linecap="round" fill="none"/><path d="M11,26 L16.2,20.8" stroke="#89958D" stroke-width="0.45" stroke-linecap="round" fill="none"/><circle cx="11" cy="26" r="1.5" fill="#D6D9CC" stroke="#1F1D1B" stroke-width="0.6" stroke-linejoin="round" stroke-linecap="round"/><circle cx="47" cy="26" r="10" fill="#D2D7CA" stroke="#404846" stroke-width="2.2" stroke-linejoin="round" stroke-linecap="round"/><circle cx="47" cy="26" r="8" fill="none" stroke="#EEECE0" stroke-width="0.6" stroke-linejoin="round" stroke-linecap="round"/><path d="M47,26 L54.4,26" stroke="#89958D" stroke-width="0.45" stroke-linecap="round" fill="none"/><path d="M47,26 L52.2,31.2" stroke="#89958D" stroke-width="0.45" stroke-linecap="round" fill="none"/><path d="M47,26 L47,33.4" stroke="#89958D" stroke-width="0.45" stroke-linecap="round" fill="none"/><path d="M47,26 L41.8,31.2" stroke="#89958D" stroke-width="0.45" stroke-linecap="round" fill="none"/><path d="M47,26 L39.6,26" stroke="#89958D" stroke-width="0.45" stroke-linecap="round" fill="none"/><path d="M47,26 L41.8,20.8" stroke="#89958D" stroke-width="0.45" stroke-linecap="round" fill="none"/><path d="M47,26 L47,18.6" stroke="#89958D" stroke-width="0.45" stroke-linecap="round" fill="none"/><path d="M47,26 L52.2,20.8" stroke="#89958D" stroke-width="0.45" stroke-linecap="round" fill="none"/><circle cx="47" cy="26" r="1.5" fill="#D6D9CC" stroke="#1F1D1B" stroke-width="0.6" stroke-linejoin="round" stroke-linecap="round"/><path d="M11,26 L21,12 L29,26 L11,26 M21,14 Q26,29 39,13 M41,12 L47,26 M41,12 L39,6 Q39,2 34,4" fill="none" stroke="#1F1D1B" stroke-width="3.2" stroke-linejoin="round" stroke-linecap="round"/><path d="M11,26 L21,12 L29,26 L11,26 M21,14 Q26,29 39,13 M41,12 L47,26 M41,12 L39,6 Q39,2 34,4" fill="none" stroke="#BF8E82" stroke-width="2" stroke-linejoin="round" stroke-linecap="round"/><path d="M5,20 Q11,12 18,19 M41,20 Q47,12 54,20" fill="none" stroke="#C6CECA" stroke-width="1.4" stroke-linejoin="round" stroke-linecap="round"/><path d="M20,12 L19,7" stroke="#1F1D1B" stroke-width="1.2" stroke-linecap="round" fill="none"/><rect x="14" y="5" width="11" height="3" rx="1.4" fill="#5A4B40" stroke="#1F1D1B" stroke-width="0.8" stroke-linejoin="round" stroke-linecap="round"/><circle cx="29" cy="26" r="3.1" fill="#F3EAD9" stroke="#1F1D1B" stroke-width="0.7" stroke-linejoin="round" stroke-linecap="round"/><path d="M29,26 L33,29" stroke="#859491" stroke-width="1.2" stroke-linecap="round" fill="none"/><path d="M31,30 L35,30" stroke="#1F1D1B" stroke-width="1.1" stroke-linecap="round" fill="none"/><rect x="42" y="2" width="14" height="10" fill="#C3CCBF" stroke="#1F1D1B" stroke-width="0.8" stroke-linejoin="round" stroke-linecap="round"/><path d="M42,2 L45,-1 L58,-1 L56,2 Z" fill="#E0E5DA" stroke="#1F1D1B" stroke-width="0.7" stroke-linejoin="round" stroke-linecap="round"/><path d="M45,3 L45,11" stroke="#718276" stroke-width="0.5" stroke-linecap="round" fill="none"/><path d="M48,3 L48,11" stroke="#718276" stroke-width="0.5" stroke-linecap="round" fill="none"/><path d="M51,3 L51,11" stroke="#718276" stroke-width="0.5" stroke-linecap="round" fill="none"/><path d="M54,3 L54,11" stroke="#718276" stroke-width="0.5" stroke-linecap="round" fill="none"/><path d="M42,7 L56,7" stroke="#718276" stroke-width="0.5" stroke-linecap="round" fill="none"/><circle cx="50" cy="13" r="1.7" fill="#FFF6CD" stroke="#1F1D1B" stroke-width="0.6" stroke-linejoin="round" stroke-linecap="round"/><path d="M6,12 L18,12" stroke="#31594E" stroke-width="1.3" stroke-linecap="round" fill="none"/><path d="M8,13 L10,18" stroke="#31594E" stroke-width="0.8" stroke-linecap="round" fill="none"/><rect x="2" y="19" width="2" height="4" fill="#CA6C53" stroke="#1F1D1B" stroke-width="0.5" stroke-linejoin="round" stroke-linecap="round"/></g><path d="M61,89 v-8 q0,-4 4,-4 v12" fill="none" stroke="#83978A" stroke-width="1.1" stroke-linejoin="round" stroke-linecap="round"/><ellipse cx="129" cy="90" rx="22" ry="3" fill="#334C3E" opacity="0.12"/><g transform="translate(106,61) scale(.75)"><circle cx="11" cy="26" r="10" fill="#D2D7CA" stroke="#404846" stroke-width="2.2" stroke-linejoin="round" stroke-linecap="round"/><circle cx="11" cy="26" r="8" fill="none" stroke="#EEECE0" stroke-width="0.6" stroke-linejoin="round" stroke-linecap="round"/><path d="M11,26 L18.4,26" stroke="#89958D" stroke-width="0.45" stroke-linecap="round" fill="none"/><path d="M11,26 L16.2,31.2" stroke="#89958D" stroke-width="0.45" stroke-linecap="round" fill="none"/><path d="M11,26 L11,33.4" stroke="#89958D" stroke-width="0.45" stroke-linecap="round" fill="none"/><path d="M11,26 L5.8,31.2" stroke="#89958D" stroke-width="0.45" stroke-linecap="round" fill="none"/><path d="M11,26 L3.6,26" stroke="#89958D" stroke-width="0.45" stroke-linecap="round" fill="none"/><path d="M11,26 L5.8,20.8" stroke="#89958D" stroke-width="0.45" stroke-linecap="round" fill="none"/><path d="M11,26 L11,18.6" stroke="#89958D" stroke-width="0.45" stroke-linecap="round" fill="none"/><path d="M11,26 L16.2,20.8" stroke="#89958D" stroke-width="0.45" stroke-linecap="round" fill="none"/><circle cx="11" cy="26" r="1.5" fill="#D6D9CC" stroke="#1F1D1B" stroke-width="0.6" stroke-linejoin="round" stroke-linecap="round"/><circle cx="47" cy="26" r="10" fill="#D2D7CA" stroke="#404846" stroke-width="2.2" stroke-linejoin="round" stroke-linecap="round"/><circle cx="47" cy="26" r="8" fill="none" stroke="#EEECE0" stroke-width="0.6" stroke-linejoin="round" stroke-linecap="round"/><path d="M47,26 L54.4,26" stroke="#89958D" stroke-width="0.45" stroke-linecap="round" fill="none"/><path d="M47,26 L52.2,31.2" stroke="#89958D" stroke-width="0.45" stroke-linecap="round" fill="none"/><path d="M47,26 L47,33.4" stroke="#89958D" stroke-width="0.45" stroke-linecap="round" fill="none"/><path d="M47,26 L41.8,31.2" stroke="#89958D" stroke-width="0.45" stroke-linecap="round" fill="none"/><path d="M47,26 L39.6,26" stroke="#89958D" stroke-width="0.45" stroke-linecap="round" fill="none"/><path d="M47,26 L41.8,20.8" stroke="#89958D" stroke-width="0.45" stroke-linecap="round" fill="none"/><path d="M47,26 L47,18.6" stroke="#89958D" stroke-width="0.45" stroke-linecap="round" fill="none"/><path d="M47,26 L52.2,20.8" stroke="#89958D" stroke-width="0.45" stroke-linecap="round" fill="none"/><circle cx="47" cy="26" r="1.5" fill="#D6D9CC" stroke="#1F1D1B" stroke-width="0.6" stroke-linejoin="round" stroke-linecap="round"/><path d="M11,26 L21,12 L29,26 L11,26 M23,18 L31,22 L40,12 M41,12 L47,26 M41,12 L39,6 L44,5" fill="none" stroke="#1F1D1B" stroke-width="3.2" stroke-linejoin="round" stroke-linecap="round"/><path d="M11,26 L21,12 L29,26 L11,26 M23,18 L31,22 L40,12 M41,12 L47,26 M41,12 L39,6 L44,5" fill="none" stroke="#DFBA69" stroke-width="2" stroke-linejoin="round" stroke-linecap="round"/><path d="M5,20 Q11,12 18,19 M41,20 Q47,12 54,20" fill="none" stroke="#C6CECA" stroke-width="1.4" stroke-linejoin="round" stroke-linecap="round"/><path d="M20,12 L19,7" stroke="#1F1D1B" stroke-width="1.2" stroke-linecap="round" fill="none"/><rect x="14" y="5" width="11" height="3" rx="1.4" fill="#5A4B40" stroke="#1F1D1B" stroke-width="0.8" stroke-linejoin="round" stroke-linecap="round"/><circle cx="29" cy="26" r="3.1" fill="#F3EAD9" stroke="#1F1D1B" stroke-width="0.7" stroke-linejoin="round" stroke-linecap="round"/><path d="M29,26 L33,29" stroke="#859491" stroke-width="1.2" stroke-linecap="round" fill="none"/><path d="M31,30 L35,30" stroke="#1F1D1B" stroke-width="1.1" stroke-linecap="round" fill="none"/><rect x="42" y="2" width="14" height="10" fill="#C3CCBF" stroke="#1F1D1B" stroke-width="0.8" stroke-linejoin="round" stroke-linecap="round"/><path d="M42,2 L45,-1 L58,-1 L56,2 Z" fill="#E0E5DA" stroke="#1F1D1B" stroke-width="0.7" stroke-linejoin="round" stroke-linecap="round"/><path d="M45,3 L45,11" stroke="#718276" stroke-width="0.5" stroke-linecap="round" fill="none"/><path d="M48,3 L48,11" stroke="#718276" stroke-width="0.5" stroke-linecap="round" fill="none"/><path d="M51,3 L51,11" stroke="#718276" stroke-width="0.5" stroke-linecap="round" fill="none"/><path d="M54,3 L54,11" stroke="#718276" stroke-width="0.5" stroke-linecap="round" fill="none"/><path d="M42,7 L56,7" stroke="#718276" stroke-width="0.5" stroke-linecap="round" fill="none"/><circle cx="50" cy="13" r="1.7" fill="#FFF6CD" stroke="#1F1D1B" stroke-width="0.6" stroke-linejoin="round" stroke-linecap="round"/><path d="M6,12 L18,12" stroke="#31594E" stroke-width="1.3" stroke-linecap="round" fill="none"/><path d="M8,13 L10,18" stroke="#31594E" stroke-width="0.8" stroke-linecap="round" fill="none"/><rect x="2" y="19" width="2" height="4" fill="#CA6C53" stroke="#1F1D1B" stroke-width="0.5" stroke-linejoin="round" stroke-linecap="round"/><path d="M7,-5 Q4,-6 4,-1 L5,8 L15,11 L18,7 L17,-4 Q12,-8 7,-5 Z" fill="#D6AF6E" stroke="#1F1D1B" stroke-width="1" stroke-linejoin="round" stroke-linecap="round"/><path d="M7,-3 L8,5 L14,7 L15,-2" fill="none" stroke="#8C693E" stroke-width="1.2" stroke-linejoin="round" stroke-linecap="round"/><path d="M10,-3 L12,7" stroke="#665442" stroke-width="1.2" stroke-linecap="round" fill="none"/><path d="M6,9 L3,19 L7,20 L9,14 M16,10 L18,19 L21,19" fill="none" stroke="#31594E" stroke-width="1.2" stroke-linejoin="round" stroke-linecap="round"/><path d="M23,15 L26,14 L30,22 L27,24 Z" fill="#657267" stroke="#1F1D1B" stroke-width="0.8" stroke-linejoin="round" stroke-linecap="round"/><path d="M25,16 L28,21" stroke="#A3B7A2" stroke-width="0.7" stroke-linecap="round" fill="none"/></g><path d="M110,89 v-8 q0,-4 4,-4 v12" fill="none" stroke="#83978A" stroke-width="1.1" stroke-linejoin="round" stroke-linecap="round"/><rect x="3" y="14" width="3" height="70" fill="#31594E" stroke="#1F1D1B" stroke-width="0.6" stroke-linejoin="round" stroke-linecap="round"/><rect x="79" y="14" width="3" height="70" fill="#31594E" stroke="#1F1D1B" stroke-width="0.6" stroke-linejoin="round" stroke-linecap="round"/><rect x="154" y="14" width="3" height="70" fill="#31594E" stroke="#1F1D1B" stroke-width="0.6" stroke-linejoin="round" stroke-linecap="round"/><path d="M-4,-3 H146 L165,27 H-3Z" fill="#BBD3BE" stroke="#1F1D1B" stroke-width="1.1" stroke-linejoin="round" stroke-linecap="round" opacity="0.88"/><path d="M4,-2 L14,26" stroke="#6E927D" stroke-width="0.8" stroke-linecap="round" fill="none"/><path d="M17,-2 L27,26" stroke="#6E927D" stroke-width="0.8" stroke-linecap="round" fill="none"/><path d="M30,-2 L40,26" stroke="#6E927D" stroke-width="0.8" stroke-linecap="round" fill="none"/><path d="M43,-2 L53,26" stroke="#6E927D" stroke-width="0.8" stroke-linecap="round" fill="none"/><path d="M56,-2 L66,26" stroke="#6E927D" stroke-width="0.8" stroke-linecap="round" fill="none"/><path d="M69,-2 L79,26" stroke="#6E927D" stroke-width="0.8" stroke-linecap="round" fill="none"/><path d="M82,-2 L92,26" stroke="#6E927D" stroke-width="0.8" stroke-linecap="round" fill="none"/><path d="M95,-2 L105,26" stroke="#6E927D" stroke-width="0.8" stroke-linecap="round" fill="none"/><path d="M108,-2 L118,26" stroke="#6E927D" stroke-width="0.8" stroke-linecap="round" fill="none"/><path d="M121,-2 L131,26" stroke="#6E927D" stroke-width="0.8" stroke-linecap="round" fill="none"/><path d="M134,-2 L144,26" stroke="#6E927D" stroke-width="0.8" stroke-linecap="round" fill="none"/><path d="M147,-2 L157,26" stroke="#6E927D" stroke-width="0.8" stroke-linecap="round" fill="none"/><rect x="-3" y="27" width="168" height="4" fill="#31594E" stroke="#1F1D1B" stroke-width="0.8" stroke-linejoin="round" stroke-linecap="round"/><rect x="46" y="31" width="67" height="10" fill="#F3EAD9" stroke="#1F1D1B" stroke-width="0.7" stroke-linejoin="round" stroke-linecap="round"/><text x="79.5" y="38" font-size="5.4" font-weight="800" fill="#31594E" text-anchor="middle" font-family="'Noto Sans CJK JP','Noto Sans JP',sans-serif">じてんしゃ おきば</text></svg>