<svg xmlns="http://www.w3.org/2000/svg" viewBox="-8 -5 122 116" width="122" height="116" role="img" aria-label="こむぎのまど・駅前売店"><ellipse cx="54" cy="98" rx="52" ry="7" fill="#1A1410" opacity="0.18"/><rect x="0" y="29" width="96" height="67" fill="#F3EAD9" stroke="#1F1D1B" stroke-width="1" stroke-linejoin="round" stroke-linecap="round"/><rect x="0" y="80" width="96" height="16" fill="#B78067" stroke="#765B4C" stroke-width="0.7" stroke-linejoin="round" stroke-linecap="round"/><path d="M0,80 L96,80" stroke="#DBBE9E" stroke-width="0.7" stroke-linecap="round" fill="none"/><path d="M0,80 L0,85" stroke="#DBBE9E" stroke-width="0.7" stroke-linecap="round" fill="none"/><path d="M14,80 L14,85" stroke="#DBBE9E" stroke-width="0.7" stroke-linecap="round" fill="none"/><path d="M28,80 L28,85" stroke="#DBBE9E" stroke-width="0.7" stroke-linecap="round" fill="none"/><path d="M42,80 L42,85" stroke="#DBBE9E" stroke-width="0.7" stroke-linecap="round" fill="none"/><path d="M56,80 L56,85" stroke="#DBBE9E" stroke-width="0.7" stroke-linecap="round" fill="none"/><path d="M70,80 L70,85" stroke="#DBBE9E" stroke-width="0.7" stroke-linecap="round" fill="none"/><path d="M84,80 L84,85" stroke="#DBBE9E" stroke-width="0.7" stroke-linecap="round" fill="none"/><path d="M0,85 L96,85" stroke="#DBBE9E" stroke-width="0.7" stroke-linecap="round" fill="none"/><path d="M7,85 L7,90" stroke="#DBBE9E" stroke-width="0.7" stroke-linecap="round" fill="none"/><path d="M21,85 L21,90" stroke="#DBBE9E" stroke-width="0.7" stroke-linecap="round" fill="none"/><path d="M35,85 L35,90" stroke="#DBBE9E" stroke-width="0.7" stroke-linecap="round" fill="none"/><path d="M49,85 L49,90" stroke="#DBBE9E" stroke-width="0.7" stroke-linecap="round" fill="none"/><path d="M63,85 L63,90" stroke="#DBBE9E" stroke-width="0.7" stroke-linecap="round" fill="none"/><path d="M77,85 L77,90" stroke="#DBBE9E" stroke-width="0.7" stroke-linecap="round" fill="none"/><path d="M91,85 L91,90" stroke="#DBBE9E" stroke-width="0.7" stroke-linecap="round" fill="none"/><path d="M0,90 L96,90" stroke="#DBBE9E" stroke-width="0.7" stroke-linecap="round" fill="none"/><path d="M0,90 L0,95" stroke="#DBBE9E" stroke-width="0.7" stroke-linecap="round" fill="none"/><path d="M14,90 L14,95" stroke="#DBBE9E" stroke-width="0.7" stroke-linecap="round" fill="none"/><path d="M28,90 L28,95" stroke="#DBBE9E" stroke-width="0.7" stroke-linecap="round" fill="none"/><path d="M42,90 L42,95" stroke="#DBBE9E" stroke-width="0.7" stroke-linecap="round" fill="none"/><path d="M56,90 L56,95" stroke="#DBBE9E" stroke-width="0.7" stroke-linecap="round" fill="none"/><path d="M70,90 L70,95" stroke="#DBBE9E" stroke-width="0.7" stroke-linecap="round" fill="none"/><path d="M84,90 L84,95" stroke="#DBBE9E" stroke-width="0.7" stroke-linecap="round" fill="none"/><path d="M0,95 L96,95" stroke="#DBBE9E" stroke-width="0.7" stroke-linecap="round" fill="none"/><path d="M7,95 L7,96" stroke="#DBBE9E" stroke-width="0.7" stroke-linecap="round" fill="none"/><path d="M21,95 L21,96" stroke="#DBBE9E" stroke-width="0.7" stroke-linecap="round" fill="none"/><path d="M35,95 L35,96" stroke="#DBBE9E" stroke-width="0.7" stroke-linecap="round" fill="none"/><path d="M49,95 L49,96" stroke="#DBBE9E" stroke-width="0.7" stroke-linecap="round" fill="none"/><path d="M63,95 L63,96" stroke="#DBBE9E" stroke-width="0.7" stroke-linecap="round" fill="none"/><path d="M77,95 L77,96" stroke="#DBBE9E" stroke-width="0.7" stroke-linecap="round" fill="none"/><path d="M91,95 L91,96" stroke="#DBBE9E" stroke-width="0.7" stroke-linecap="round" fill="none"/><rect x="6" y="45" width="51" height="35" fill="#5C6F5B" stroke="#1F1D1B" stroke-width="0.8" stroke-linejoin="round" stroke-linecap="round"/><rect x="65" y="40" width="25" height="54" fill="#D8B96F" stroke="#31594E" stroke-width="0.9" stroke-linejoin="round" stroke-linecap="round"/><path d="M67,92 L79,42 H85 L71.25,92Z" fill="#F5DB99" opacity="0.75"/><path d="M77.5,40 L77.5,94" stroke="#E8E9D8" stroke-width="1.4" stroke-linecap="round" fill="none"/><path d="M84,68 L84,74" stroke="#BC795C" stroke-width="1.4" stroke-linecap="round" fill="none"/><rect x="9" y="55" width="45" height="2" fill="#A97850" stroke="#1F1D1B" stroke-width="0.5" stroke-linejoin="round" stroke-linecap="round"/><ellipse cx="14" cy="52" rx="4" ry="2" fill="#D4A45D" stroke="#1F1D1B" stroke-width="0.5" stroke-linejoin="round" stroke-linecap="round"/><path d="M13,51 L16,51" stroke="#F4D49D" stroke-width="0.6" stroke-linecap="round" fill="none"/><ellipse cx="25" cy="52" rx="4" ry="2" fill="#D4A45D" stroke="#1F1D1B" stroke-width="0.5" stroke-linejoin="round" stroke-linecap="round"/><path d="M24,51 L27,51" stroke="#F4D49D" stroke-width="0.6" stroke-linecap="round" fill="none"/><ellipse cx="36" cy="52" rx="4" ry="2" fill="#D4A45D" stroke="#1F1D1B" stroke-width="0.5" stroke-linejoin="round" stroke-linecap="round"/><path d="M35,51 L38,51" stroke="#F4D49D" stroke-width="0.6" stroke-linecap="round" fill="none"/><ellipse cx="47" cy="52" rx="4" ry="2" fill="#D4A45D" stroke="#1F1D1B" stroke-width="0.5" stroke-linejoin="round" stroke-linecap="round"/><path d="M46,51 L49,51" stroke="#F4D49D" stroke-width="0.6" stroke-linecap="round" fill="none"/><rect x="9" y="64" width="45" height="2" fill="#A97850" stroke="#1F1D1B" stroke-width="0.5" stroke-linejoin="round" stroke-linecap="round"/><ellipse cx="14" cy="61" rx="4" ry="2" fill="#D4A45D" stroke="#1F1D1B" stroke-width="0.5" stroke-linejoin="round" stroke-linecap="round"/><path d="M13,60 L16,60" stroke="#F4D49D" stroke-width="0.6" stroke-linecap="round" fill="none"/><ellipse cx="25" cy="61" rx="4" ry="2" fill="#D4A45D" stroke="#1F1D1B" stroke-width="0.5" stroke-linejoin="round" stroke-linecap="round"/><path d="M24,60 L27,60" stroke="#F4D49D" stroke-width="0.6" stroke-linecap="round" fill="none"/><ellipse cx="36" cy="61" rx="4" ry="2" fill="#D4A45D" stroke="#1F1D1B" stroke-width="0.5" stroke-linejoin="round" stroke-linecap="round"/><path d="M35,60 L38,60" stroke="#F4D49D" stroke-width="0.6" stroke-linecap="round" fill="none"/><ellipse cx="47" cy="61" rx="4" ry="2" fill="#D4A45D" stroke="#1F1D1B" stroke-width="0.5" stroke-linejoin="round" stroke-linecap="round"/><path d="M46,60 L49,60" stroke="#F4D49D" stroke-width="0.6" stroke-linecap="round" fill="none"/><rect x="9" y="73" width="45" height="2" fill="#A97850" stroke="#1F1D1B" stroke-width="0.5" stroke-linejoin="round" stroke-linecap="round"/><ellipse cx="14" cy="70" rx="4" ry="2" fill="#D4A45D" stroke="#1F1D1B" stroke-width="0.5" stroke-linejoin="round" stroke-linecap="round"/><path d="M13,69 L16,69" stroke="#F4D49D" stroke-width="0.6" stroke-linecap="round" fill="none"/><ellipse cx="25" cy="70" rx="4" ry="2" fill="#D4A45D" stroke="#1F1D1B" stroke-width="0.5" stroke-linejoin="round" stroke-linecap="round"/><path d="M24,69 L27,69" stroke="#F4D49D" stroke-width="0.6" stroke-linecap="round" fill="none"/><ellipse cx="36" cy="70" rx="4" ry="2" fill="#D4A45D" stroke="#1F1D1B" stroke-width="0.5" stroke-linejoin="round" stroke-linecap="round"/><path d="M35,69 L38,69" stroke="#F4D49D" stroke-width="0.6" stroke-linecap="round" fill="none"/><ellipse cx="47" cy="70" rx="4" ry="2" fill="#D4A45D" stroke="#1F1D1B" stroke-width="0.5" stroke-linejoin="round" stroke-linecap="round"/><path d="M46,69 L49,69" stroke="#F4D49D" stroke-width="0.6" stroke-linecap="round" fill="none"/><path d="M12,0 H84 L99,25 H-3Z" fill="#648975" stroke="#1F1D1B" stroke-width="1.3" stroke-linejoin="round" stroke-linecap="round"/><path d="M13.8,1 L-0.4,23" stroke="#456956" stroke-width="0.7" stroke-linecap="round" fill="none"/><path d="M14.8,1 L0.6,22" stroke="#91AA8A" stroke-width="0.6" stroke-linecap="round" fill="none"/><path d="M17.4,1 L4.6,23" stroke="#456956" stroke-width="0.7" stroke-linecap="round" fill="none"/><path d="M18.4,1 L5.6,22" stroke="#91AA8A" stroke-width="0.6" stroke-linecap="round" fill="none"/><path d="M21,1 L9.8,23" stroke="#456956" stroke-width="0.7" stroke-linecap="round" fill="none"/><path d="M22,1 L10.8,22" stroke="#91AA8A" stroke-width="0.6" stroke-linecap="round" fill="none"/><path d="M24.6,1 L14.8,23" stroke="#456956" stroke-width="0.7" stroke-linecap="round" fill="none"/><path d="M25.6,1 L15.8,22" stroke="#91AA8A" stroke-width="0.6" stroke-linecap="round" fill="none"/><path d="M28.2,1 L19.9,23" stroke="#456956" stroke-width="0.7" stroke-linecap="round" fill="none"/><path d="M29.2,1 L20.9,22" stroke="#91AA8A" stroke-width="0.6" stroke-linecap="round" fill="none"/><path d="M31.8,1 L25.1,23" stroke="#456956" stroke-width="0.7" stroke-linecap="round" fill="none"/><path d="M32.8,1 L26.1,22" stroke="#91AA8A" stroke-width="0.6" stroke-linecap="round" fill="none"/><path d="M35.4,1 L30.1,23" stroke="#456956" stroke-width="0.7" stroke-linecap="round" fill="none"/><path d="M36.4,1 L31.1,22" stroke="#91AA8A" stroke-width="0.6" stroke-linecap="round" fill="none"/><path d="M39,1 L35.3,23" stroke="#456956" stroke-width="0.7" stroke-linecap="round" fill="none"/><path d="M40,1 L36.3,22" stroke="#91AA8A" stroke-width="0.6" stroke-linecap="round" fill="none"/><path d="M42.6,1 L40.4,23" stroke="#456956" stroke-width="0.7" stroke-linecap="round" fill="none"/><path d="M43.6,1 L41.4,22" stroke="#91AA8A" stroke-width="0.6" stroke-linecap="round" fill="none"/><path d="M46.2,1 L45.4,23" stroke="#456956" stroke-width="0.7" stroke-linecap="round" fill="none"/><path d="M47.2,1 L46.4,22" stroke="#91AA8A" stroke-width="0.6" stroke-linecap="round" fill="none"/><path d="M49.8,1 L50.6,23" stroke="#456956" stroke-width="0.7" stroke-linecap="round" fill="none"/><path d="M50.8,1 L51.6,22" stroke="#91AA8A" stroke-width="0.6" stroke-linecap="round" fill="none"/><path d="M53.4,1 L55.6,23" stroke="#456956" stroke-width="0.7" stroke-linecap="round" fill="none"/><path d="M54.4,1 L56.6,22" stroke="#91AA8A" stroke-width="0.6" stroke-linecap="round" fill="none"/><path d="M57,1 L60.8,23" stroke="#456956" stroke-width="0.7" stroke-linecap="round" fill="none"/><path d="M58,1 L61.8,22" stroke="#91AA8A" stroke-width="0.6" stroke-linecap="round" fill="none"/><path d="M60.6,1 L65.9,23" stroke="#456956" stroke-width="0.7" stroke-linecap="round" fill="none"/><path d="M61.6,1 L66.9,22" stroke="#91AA8A" stroke-width="0.6" stroke-linecap="round" fill="none"/><path d="M64.2,1 L71,23" stroke="#456956" stroke-width="0.7" stroke-linecap="round" fill="none"/><path d="M65.2,1 L72,22" stroke="#91AA8A" stroke-width="0.6" stroke-linecap="round" fill="none"/><path d="M67.8,1 L76,23" stroke="#456956" stroke-width="0.7" stroke-linecap="round" fill="none"/><path d="M68.8,1 L77,22" stroke="#91AA8A" stroke-width="0.6" stroke-linecap="round" fill="none"/><path d="M71.4,1 L81.1,23" stroke="#456956" stroke-width="0.7" stroke-linecap="round" fill="none"/><path d="M72.4,1 L82.1,22" stroke="#91AA8A" stroke-width="0.6" stroke-linecap="round" fill="none"/><path d="M75,1 L86.3,23" stroke="#456956" stroke-width="0.7" stroke-linecap="round" fill="none"/><path d="M76,1 L87.3,22" stroke="#91AA8A" stroke-width="0.6" stroke-linecap="round" fill="none"/><path d="M78.6,1 L91.4,23" stroke="#456956" stroke-width="0.7" stroke-linecap="round" fill="none"/><path d="M79.6,1 L92.4,22" stroke="#91AA8A" stroke-width="0.6" stroke-linecap="round" fill="none"/><path d="M82.2,1 L96.5,23" stroke="#456956" stroke-width="0.7" stroke-linecap="round" fill="none"/><path d="M83.2,1 L97.5,22" stroke="#91AA8A" stroke-width="0.6" stroke-linecap="round" fill="none"/><path d="M12,0 L84,0" stroke="#A8BBA1" stroke-width="2" stroke-linecap="round" fill="none"/><rect x="-4" y="25" width="104" height="4" fill="#31594E" stroke="#1F1D1B" stroke-width="0.9" stroke-linejoin="round" stroke-linecap="round"/><rect x="-3" y="29" width="102" height="4" fill="#312F26" opacity="0.17"/><rect x="6" y="29" width="84" height="12" fill="#BC795C" stroke="#1F1D1B" stroke-width="0.7" stroke-linejoin="round" stroke-linecap="round"/><text x="48" y="37.5" font-size="6.5" font-weight="800" fill="#FFF" text-anchor="middle" font-family="'Noto Sans CJK JP','Noto Sans JP',sans-serif">こむぎの まど</text><path d="M4,42 H59 L64,50 H0Z" fill="#E6C282" stroke="#1F1D1B" stroke-width="0.8" stroke-linejoin="round" stroke-linecap="round"/><path d="M5,43 h5 l3,6 h-6Z" fill="#FAEDCA"/><path d="M17,43 h5 l3,6 h-6Z" fill="#FAEDCA"/><path d="M29,43 h5 l3,6 h-6Z" fill="#FAEDCA"/><path d="M41,43 h5 l3,6 h-6Z" fill="#FAEDCA"/><path d="M53,43 h5 l3,6 h-6Z" fill="#FAEDCA"/><g transform="translate(1,86)"><rect x="0" y="0" width="24" height="9" fill="#C39773" stroke="#1F1D1B" stroke-width="0.7" stroke-linejoin="round" stroke-linecap="round"/><path d="M0,0 l3,-5 h18 l3,5Z" fill="#DAB698" stroke="#1F1D1B" stroke-width="0.7" stroke-linejoin="round" stroke-linecap="round"/><rect x="3" y="-4" width="18" height="4" fill="#6F644B"/><path d="M6,2 L6,-9" stroke="#5B7D51" stroke-width="0.7" stroke-linecap="round" fill="none"/><ellipse cx="3" cy="-3" rx="3" ry="1.2" fill="#72935B"/><ellipse cx="9" cy="-5" rx="3" ry="1.2" fill="#72935B"/><circle cx="6" cy="-5" r="1.5" fill="#D99891" stroke="#a3726d" stroke-width="0.3" stroke-linejoin="round" stroke-linecap="round"/><circle cx="7.9" cy="-6.4" r="1.5" fill="#D99891" stroke="#a3726d" stroke-width="0.3" stroke-linejoin="round" stroke-linecap="round"/><circle cx="7.2" cy="-8.6" r="1.5" fill="#D99891" stroke="#a3726d" stroke-width="0.3" stroke-linejoin="round" stroke-linecap="round"/><circle cx="4.8" cy="-8.6" r="1.5" fill="#D99891" stroke="#a3726d" stroke-width="0.3" stroke-linejoin="round" stroke-linecap="round"/><circle cx="4.1" cy="-6.4" r="1.5" fill="#D99891" stroke="#a3726d" stroke-width="0.3" stroke-linejoin="round" stroke-linecap="round"/><circle cx="6" cy="-7" r="0.9" fill="#EDD47F"/><path d="M12,-2 L12,-13" stroke="#5B7D51" stroke-width="0.7" stroke-linecap="round" fill="none"/><ellipse cx="9" cy="-7" rx="3" ry="1.2" fill="#72935B"/><ellipse cx="15" cy="-9" rx="3" ry="1.2" fill="#72935B"/><circle cx="12" cy="-9" r="1.5" fill="#F4DFC0" stroke="#b7a790" stroke-width="0.3" stroke-linejoin="round" stroke-linecap="round"/><circle cx="13.9" cy="-10.4" r="1.5" fill="#F4DFC0" stroke="#b7a790" stroke-width="0.3" stroke-linejoin="round" stroke-linecap="round"/><circle cx="13.2" cy="-12.6" r="1.5" fill="#F4DFC0" stroke="#b7a790" stroke-width="0.3" stroke-linejoin="round" stroke-linecap="round"/><circle cx="10.8" cy="-12.6" r="1.5" fill="#F4DFC0" stroke="#b7a790" stroke-width="0.3" stroke-linejoin="round" stroke-linecap="round"/><circle cx="10.1" cy="-10.4" r="1.5" fill="#F4DFC0" stroke="#b7a790" stroke-width="0.3" stroke-linejoin="round" stroke-linecap="round"/><circle cx="12" cy="-11" r="0.9" fill="#EDD47F"/><path d="M19,1 L19,-10" stroke="#5B7D51" stroke-width="0.7" stroke-linecap="round" fill="none"/><ellipse cx="16" cy="-4" rx="3" ry="1.2" fill="#72935B"/><ellipse cx="22" cy="-6" rx="3" ry="1.2" fill="#72935B"/><circle cx="19" cy="-6" r="1.5" fill="#C594B5" stroke="#946f88" stroke-width="0.3" stroke-linejoin="round" stroke-linecap="round"/><circle cx="20.9" cy="-7.4" r="1.5" fill="#C594B5" stroke="#946f88" stroke-width="0.3" stroke-linejoin="round" stroke-linecap="round"/><circle cx="20.2" cy="-9.6" r="1.5" fill="#C594B5" stroke="#946f88" stroke-width="0.3" stroke-linejoin="round" stroke-linecap="round"/><circle cx="17.8" cy="-9.6" r="1.5" fill="#C594B5" stroke="#946f88" stroke-width="0.3" stroke-linejoin="round" stroke-linecap="round"/><circle cx="17.1" cy="-7.4" r="1.5" fill="#C594B5" stroke="#946f88" stroke-width="0.3" stroke-linejoin="round" stroke-linecap="round"/><circle cx="19" cy="-8" r="0.9" fill="#EDD47F"/></g><rect x="37" y="82" width="17" height="13" fill="#31594E" stroke="#1F1D1B" stroke-width="0.7" stroke-linejoin="round" stroke-linecap="round"/><text x="45" y="88" font-size="3.5" font-weight="800" fill="#FFF" text-anchor="middle" font-family="'Noto Sans CJK JP','Noto Sans JP',sans-serif">やきたて</text><text x="45" y="93" font-size="4.2" font-weight="800" fill="#FFF" text-anchor="middle" font-family="'Noto Sans CJK JP','Noto Sans JP',sans-serif">パン</text></svg>