<svg xmlns="http://www.w3.org/2000/svg" viewBox="-12 -104 56 140" width="56" height="140" role="img" aria-label="サンシャイン60どおりの かんばん"><g stroke-linejoin="round" stroke-linecap="round"><ellipse cx="16" cy="29" rx="10" ry="3" fill="#1A1410" opacity="0.16"/><rect x="12" y="-6" width="8" height="34" fill="#6F7F8A" stroke="#1F1D1B" stroke-width="1"/><rect x="8" y="24" width="16" height="6" fill="#56636C" stroke="#1F1D1B" stroke-width="0.9"/><rect x="3" y="-98" width="26" height="94" rx="3" fill="#F6B846" stroke="#1F1D1B" stroke-width="1.2"/><rect x="6" y="-95" width="20" height="88" rx="2" fill="#FFF8E8" stroke="#1F1D1B" stroke-width="0.7"/><path d="M23.7,-84 L26.1,-84" stroke="#F2A33A" stroke-width="1.43" stroke-linecap="round" fill="none"/><path d="M22.6,-80.2 L24.7,-79" stroke="#F2A33A" stroke-width="1.43" stroke-linecap="round" fill="none"/><path d="M19.8,-77.4 L21,-75.3" stroke="#F2A33A" stroke-width="1.43" stroke-linecap="round" fill="none"/><path d="M16,-76.3 L16,-73.9" stroke="#F2A33A" stroke-width="1.43" stroke-linecap="round" fill="none"/><path d="M12.2,-77.4 L11,-75.3" stroke="#F2A33A" stroke-width="1.43" stroke-linecap="round" fill="none"/><path d="M9.4,-80.2 L7.3,-79" stroke="#F2A33A" stroke-width="1.43" stroke-linecap="round" fill="none"/><path d="M8.3,-84 L5.9,-84" stroke="#F2A33A" stroke-width="1.43" stroke-linecap="round" fill="none"/><path d="M9.4,-87.8 L7.3,-89" stroke="#F2A33A" stroke-width="1.43" stroke-linecap="round" fill="none"/><path d="M12.2,-90.6 L11,-92.7" stroke="#F2A33A" stroke-width="1.43" stroke-linecap="round" fill="none"/><path d="M16,-91.7 L16,-94.1" stroke="#F2A33A" stroke-width="1.43" stroke-linecap="round" fill="none"/><path d="M19.8,-90.6 L21,-92.7" stroke="#F2A33A" stroke-width="1.43" stroke-linecap="round" fill="none"/><path d="M22.6,-87.8 L24.7,-89" stroke="#F2A33A" stroke-width="1.43" stroke-linecap="round" fill="none"/><circle cx="16" cy="-84" r="6.5" fill="#F6B846" stroke="#1F1D1B" stroke-width="0.9"/><path d="M13.075,-83.35 q2.9250000000000003,3.25 5.8500000000000005,0" fill="none" stroke="#B5652B" stroke-width="0.78"/><circle cx="13.9" cy="-85.3" r="0.7" fill="#B5652B"/><circle cx="18.1" cy="-85.3" r="0.7" fill="#B5652B"/><text x="16" y="-66" font-size="7" font-weight="800" fill="#B5652B" text-anchor="middle" font-family="'Noto Sans CJK JP','Noto Sans JP',sans-serif">サン</text><text x="16" y="-57.3" font-size="7" font-weight="800" fill="#B5652B" text-anchor="middle" font-family="'Noto Sans CJK JP','Noto Sans JP',sans-serif">シャ</text><text x="16" y="-48.5" font-size="7" font-weight="800" fill="#B5652B" text-anchor="middle" font-family="'Noto Sans CJK JP','Noto Sans JP',sans-serif">イン</text><text x="16" y="-34" font-size="11" font-weight="800" fill="#C2447B" text-anchor="middle" font-family="'Noto Sans CJK JP','Noto Sans JP',sans-serif">60</text><text x="16" y="-22" font-size="6.4" font-weight="800" fill="#B5652B" text-anchor="middle" font-family="'Noto Sans CJK JP','Noto Sans JP',sans-serif">どお</text><text x="16" y="-14.3" font-size="6.4" font-weight="800" fill="#B5652B" text-anchor="middle" font-family="'Noto Sans CJK JP','Noto Sans JP',sans-serif">り</text></g></svg>