<svg xmlns="http://www.w3.org/2000/svg" viewBox="-12 -40 194 470" width="194" height="470" role="img" aria-label="あおぞら ビル（ほそい ふつうの ビル）"><g stroke-linejoin="round" stroke-linecap="round"><path d="M160,410 l12,5.4 V420.2 H9.600000000000001 L0,416Z" fill="#1A1410" opacity="0.16"/><rect x="4" y="6" width="152" height="40" fill="#C9C6BE" stroke="#1F1D1B" stroke-width="1"/><path d="M7,9 L153,9" stroke="#dcdad5" stroke-width="1.2" stroke-linecap="round" fill="none"/><rect x="2" y="42" width="156" height="6" fill="#a5a29c" stroke="#1F1D1B" stroke-width="0.9"/><rect x="16" y="18" width="18" height="11" fill="#D8DAD4" stroke="#1F1D1B" stroke-width="0.8"/><circle cx="22" cy="23.5" r="3.6" fill="#B9BDB6" stroke="#1F1D1B" stroke-width="0.6"/><path d="M22,20 L22,27" stroke="#8F948C" stroke-width="0.6" stroke-linecap="round" fill="none"/><path d="M18.5,23.5 L25.5,23.5" stroke="#8F948C" stroke-width="0.6" stroke-linecap="round" fill="none"/><rect x="28" y="21" width="4" height="1.2" fill="#A3A89F"/><rect x="28" y="24" width="4" height="1.2" fill="#A3A89F"/><rect x="40" y="18" width="18" height="11" fill="#D8DAD4" stroke="#1F1D1B" stroke-width="0.8"/><circle cx="46" cy="23.5" r="3.6" fill="#B9BDB6" stroke="#1F1D1B" stroke-width="0.6"/><path d="M46,20 L46,27" stroke="#8F948C" stroke-width="0.6" stroke-linecap="round" fill="none"/><path d="M42.5,23.5 L49.5,23.5" stroke="#8F948C" stroke-width="0.6" stroke-linecap="round" fill="none"/><rect x="52" y="21" width="4" height="1.2" fill="#A3A89F"/><rect x="52" y="24" width="4" height="1.2" fill="#A3A89F"/><path d="M132,30 L132,6" stroke="#1F1D1B" stroke-width="1.1" stroke-linecap="round" fill="none"/><path d="M127,13.2 L137,13.2" stroke="#1F1D1B" stroke-width="0.8" stroke-linecap="round" fill="none"/><circle cx="132" cy="6" r="1.6" fill="#E25B4F" stroke="#1F1D1B" stroke-width="0.5"/><rect x="6" y="46" width="148" height="370" fill="#DDE5E8" stroke="#1F1D1B" stroke-width="1.3"/><path d="M154,46 l9,-5.3999999999999995 V410.6 l-9,5.3999999999999995Z" fill="#b1b7ba" stroke="#1F1D1B" stroke-width="0.9"/><rect x="16" y="54" width="128" height="262" fill="#5D7380" stroke="#1F1D1B" stroke-width="1"/><rect x="17.2" y="55.2" width="40.3" height="41.3" fill="#9EC3D6"/><path d="M18.7,94.96666666666667 L39.346666666666664,56.7 H48.608000000000004 L26.058666666666667,94.96666666666667Z" fill="#E8F4F8" opacity="0.7"/><rect x="59.9" y="55.2" width="40.3" height="41.3" fill="#9EC3D6"/><path d="M61.36666666666667,94.96666666666667 L82.01333333333334,56.7 H91.27466666666666 L68.72533333333334,94.96666666666667Z" fill="#E8F4F8" opacity="0.7"/><rect x="102.5" y="55.2" width="40.3" height="41.3" fill="#9EC3D6"/><path d="M104.03333333333333,94.96666666666667 L124.68,56.7 H133.94133333333332 L111.392,94.96666666666667Z" fill="#E8F4F8" opacity="0.7"/><rect x="17.2" y="98.9" width="40.3" height="41.3" fill="#9EC3D6"/><path d="M18.7,138.63333333333333 L39.346666666666664,100.36666666666666 H48.608000000000004 L26.058666666666667,138.63333333333333Z" fill="#E8F4F8" opacity="0.7"/><rect x="59.9" y="98.9" width="40.3" height="41.3" fill="#9EC3D6"/><path d="M61.36666666666667,138.63333333333333 L82.01333333333334,100.36666666666666 H91.27466666666666 L68.72533333333334,138.63333333333333Z" fill="#E8F4F8" opacity="0.7"/><rect x="102.5" y="98.9" width="40.3" height="41.3" fill="#9EC3D6"/><path d="M104.03333333333333,138.63333333333333 L124.68,100.36666666666666 H133.94133333333332 L111.392,138.63333333333333Z" fill="#E8F4F8" opacity="0.7"/><rect x="17.2" y="142.5" width="40.3" height="41.3" fill="#9EC3D6"/><path d="M18.7,182.29999999999995 L39.346666666666664,144.0333333333333 H48.608000000000004 L26.058666666666667,182.29999999999995Z" fill="#E8F4F8" opacity="0.7"/><rect x="59.9" y="142.5" width="40.3" height="41.3" fill="#9EC3D6"/><path d="M61.36666666666667,182.29999999999995 L82.01333333333334,144.0333333333333 H91.27466666666666 L68.72533333333334,182.29999999999995Z" fill="#E8F4F8" opacity="0.7"/><rect x="102.5" y="142.5" width="40.3" height="41.3" fill="#9EC3D6"/><path d="M104.03333333333333,182.29999999999995 L124.68,144.0333333333333 H133.94133333333332 L111.392,182.29999999999995Z" fill="#E8F4F8" opacity="0.7"/><rect x="17.2" y="186.2" width="40.3" height="41.3" fill="#9EC3D6"/><path d="M18.7,225.96666666666664 L39.346666666666664,187.7 H48.608000000000004 L26.058666666666667,225.96666666666664Z" fill="#E8F4F8" opacity="0.7"/><rect x="59.9" y="186.2" width="40.3" height="41.3" fill="#9EC3D6"/><path d="M61.36666666666667,225.96666666666664 L82.01333333333334,187.7 H91.27466666666666 L68.72533333333334,225.96666666666664Z" fill="#E8F4F8" opacity="0.7"/><rect x="102.5" y="186.2" width="40.3" height="41.3" fill="#9EC3D6"/><path d="M104.03333333333333,225.96666666666664 L124.68,187.7 H133.94133333333332 L111.392,225.96666666666664Z" fill="#E8F4F8" opacity="0.7"/><rect x="17.2" y="229.9" width="40.3" height="41.3" fill="#9EC3D6"/><path d="M18.7,269.6333333333333 L39.346666666666664,231.36666666666665 H48.608000000000004 L26.058666666666667,269.6333333333333Z" fill="#E8F4F8" opacity="0.7"/><rect x="59.9" y="229.9" width="40.3" height="41.3" fill="#9EC3D6"/><path d="M61.36666666666667,269.6333333333333 L82.01333333333334,231.36666666666665 H91.27466666666666 L68.72533333333334,269.6333333333333Z" fill="#E8F4F8" opacity="0.7"/><rect x="102.5" y="229.9" width="40.3" height="41.3" fill="#9EC3D6"/><path d="M104.03333333333333,269.6333333333333 L124.68,231.36666666666665 H133.94133333333332 L111.392,269.6333333333333Z" fill="#E8F4F8" opacity="0.7"/><rect x="17.2" y="273.5" width="40.3" height="41.3" fill="#9EC3D6"/><path d="M18.7,313.29999999999995 L39.346666666666664,275.0333333333333 H48.608000000000004 L26.058666666666667,313.29999999999995Z" fill="#E8F4F8" opacity="0.7"/><rect x="59.9" y="273.5" width="40.3" height="41.3" fill="#9EC3D6"/><path d="M61.36666666666667,313.29999999999995 L82.01333333333334,275.0333333333333 H91.27466666666666 L68.72533333333334,313.29999999999995Z" fill="#E8F4F8" opacity="0.7"/><rect x="102.5" y="273.5" width="40.3" height="41.3" fill="#9EC3D6"/><path d="M104.03333333333333,313.29999999999995 L124.68,275.0333333333333 H133.94133333333332 L111.392,313.29999999999995Z" fill="#E8F4F8" opacity="0.7"/><path d="M26.240000000000002,316 L74.88,54 H92.8 L44.16,316Z" fill="#FFFFFF" opacity="0.12"/><rect x="13" y="52" width="6" height="266" fill="#F1F4F2" stroke="#1F1D1B" stroke-width="0.8"/><rect x="55" y="52" width="6" height="266" fill="#F1F4F2" stroke="#1F1D1B" stroke-width="0.8"/><rect x="99" y="52" width="6" height="266" fill="#F1F4F2" stroke="#1F1D1B" stroke-width="0.8"/><rect x="141" y="52" width="6" height="266" fill="#F1F4F2" stroke="#1F1D1B" stroke-width="0.8"/><rect x="16" y="324" width="128" height="22" rx="2" fill="#3E5966" stroke="#1F1D1B" stroke-width="1.1"/><text x="80" y="339" font-size="11" font-weight="800" fill="#FFFFFF" text-anchor="middle" font-family="'Noto Sans CJK JP','Noto Sans JP',sans-serif">あおぞら ビル</text><rect x="8" y="350" width="144" height="64" fill="#56636C" stroke="#1F1D1B" stroke-width="1"/><rect x="14" y="356" width="30" height="54" fill="#A9CCD6" stroke="#1F1D1B" stroke-width="0.8"/><path d="M15.5,408.5 L30.5,357.5 H37.400000000000006 L20.6,408.5Z" fill="#E6F4F4" opacity="0.7"/><rect x="116" y="356" width="30" height="54" fill="#A9CCD6" stroke="#1F1D1B" stroke-width="0.8"/><path d="M117.5,408.5 L132.5,357.5 H139.4 L122.6,408.5Z" fill="#E6F4F4" opacity="0.7"/><rect x="53" y="369" width="54" height="44" fill="#3C4E55" stroke="#1F1D1B" stroke-width="1"/><rect x="57" y="373" width="22" height="40" fill="#A9CCD6" stroke="#1F1D1B" stroke-width="0.8"/><path d="M58.5,411.5 L69.1,374.5 H74.16 L61.84,411.5Z" fill="#E6F4F4" opacity="0.7"/><rect x="81" y="373" width="22" height="40" fill="#A9CCD6" stroke="#1F1D1B" stroke-width="0.8"/><path d="M82.5,411.5 L93.1,374.5 H98.16 L85.84,411.5Z" fill="#E6F4F4" opacity="0.7"/><path d="M80,373 L80,413" stroke="#1F1D1B" stroke-width="1.1" stroke-linecap="round" fill="none"/><rect x="75" y="393" width="2" height="9" fill="#E9E4D6"/><rect x="83" y="393" width="2" height="9" fill="#E9E4D6"/><rect x="49" y="410.5" width="62" height="2.5" fill="#C9C2B2" stroke="#1F1D1B" stroke-width="0.6"/><rect x="59" y="408.5" width="42" height="2" fill="#AFC0C7"/></g></svg>