<svg xmlns="http://www.w3.org/2000/svg" viewBox="-10 -124 118 160" width="118" height="160" role="img" aria-label="まちの 大きな 画面"><g stroke-linejoin="round" stroke-linecap="round"><ellipse cx="48" cy="29" rx="40" ry="4" fill="#1A1410" opacity="0.16"/><rect x="14" y="-40" width="6" height="68" fill="#56636C" stroke="#1F1D1B" stroke-width="1"/><rect x="78" y="-40" width="6" height="68" fill="#56636C" stroke="#1F1D1B" stroke-width="1"/><rect x="0" y="-118" width="96" height="80" rx="3" fill="#2D3238" stroke="#1F1D1B" stroke-width="1.3"/><rect x="4" y="-114" width="88" height="64" fill="#76BDE6" stroke="#1F1D1B" stroke-width="0.6"/><path d="M4,-60 q22,-10 44,0 t44,0 V-50 H4Z" fill="#4E93C6"/><path d="M20,-86 q12,-12 26,0 q-14,12 -26,0Z M46,-86 l8,-7 v14Z" fill="#F7C948" stroke="#1F1D1B" stroke-width="0.9"/><circle cx="26" cy="-88" r="1.4" fill="#1F1D1B"/><path d="M58,-74 q8,-7 16,0 q-8,7 -16,0Z M74,-74 l5,-4 v8Z" fill="#F29AAE" stroke="#1F1D1B" stroke-width="0.7"/><circle cx="66" cy="-100" r="2" fill="#DDF3FB" stroke="#1F1D1B" stroke-width="0.5"/><circle cx="72" cy="-94" r="2" fill="#DDF3FB" stroke="#1F1D1B" stroke-width="0.5"/><circle cx="40" cy="-70" r="2" fill="#DDF3FB" stroke="#1F1D1B" stroke-width="0.5"/><rect x="4" y="-50" width="88" height="10" fill="#1E2328"/><text x="48" y="-42" font-size="5.6" font-weight="800" fill="#FFE58A" text-anchor="middle" font-family="'Noto Sans CJK JP','Noto Sans JP',sans-serif">12かい すいぞくかん ひらいてるよ</text><rect x="-4" y="-44" width="8" height="14" fill="#3C4046" stroke="#1F1D1B" stroke-width="0.8"/><rect x="92" y="-44" width="8" height="14" fill="#3C4046" stroke="#1F1D1B" stroke-width="0.8"/></g></svg>