<svg xmlns="http://www.w3.org/2000/svg" viewBox="-12 -50 290 288" width="290" height="288" role="img" aria-label="おくじょう ていえん"><g stroke-linejoin="round" stroke-linecap="round"><path d="M256,218 l12,5.4 V228.2 H9.600000000000001 L0,224Z" fill="#1A1410" opacity="0.16"/><rect x="8" y="40" width="240" height="184" fill="#E4E7DD" stroke="#1F1D1B" stroke-width="1.3"/><path d="M248,40 l9,-5.3999999999999995 V218.6 l-9,5.3999999999999995Z" fill="#b6b9b1" stroke="#1F1D1B" stroke-width="0.9"/><rect x="12" y="26" width="232" height="16" fill="#A58F6E" stroke="#1F1D1B" stroke-width="1"/><path d="M34,26 L34,34" stroke="#7A5A40" stroke-width="3" stroke-linecap="round" fill="none"/><circle cx="34" cy="8" r="18" fill="#6FAE5E" stroke="#1F1D1B" stroke-width="1"/><circle cx="28.6" cy="2.6" r="9" fill="#94C48C"/><path d="M70,22 L70,34" stroke="#7A5A40" stroke-width="3" stroke-linecap="round" fill="none"/><circle cx="70" cy="0" r="22" fill="#6FAE5E" stroke="#1F1D1B" stroke-width="1"/><circle cx="63.4" cy="-6.6" r="11" fill="#94C48C"/><path d="M196,24 L196,34" stroke="#7A5A40" stroke-width="3" stroke-linecap="round" fill="none"/><circle cx="196" cy="4" r="20" fill="#6FAE5E" stroke="#1F1D1B" stroke-width="1"/><circle cx="190" cy="-2" r="10" fill="#94C48C"/><path d="M228,27 L228,34" stroke="#7A5A40" stroke-width="3" stroke-linecap="round" fill="none"/><circle cx="228" cy="12" r="15" fill="#6FAE5E" stroke="#1F1D1B" stroke-width="1"/><circle cx="223.5" cy="7.5" r="7.5" fill="#94C48C"/><rect x="104" y="-2" width="64" height="6" fill="#B98E6B" stroke="#1F1D1B" stroke-width="0.8"/><path d="M108,4 L108,30" stroke="#8C6A52" stroke-width="2" stroke-linecap="round" fill="none"/><path d="M134,4 L134,30" stroke="#8C6A52" stroke-width="2" stroke-linecap="round" fill="none"/><path d="M160,4 L160,30" stroke="#8C6A52" stroke-width="2" stroke-linecap="round" fill="none"/><path d="M108,4 q2,8 0,14" fill="none" stroke="#B8A2D8" stroke-width="2.4"/><path d="M116,4 q2,8 0,14" fill="none" stroke="#B8A2D8" stroke-width="2.4"/><path d="M124,4 q2,8 0,14" fill="none" stroke="#B8A2D8" stroke-width="2.4"/><path d="M132,4 q2,8 0,14" fill="none" stroke="#B8A2D8" stroke-width="2.4"/><path d="M140,4 q2,8 0,14" fill="none" stroke="#B8A2D8" stroke-width="2.4"/><path d="M148,4 q2,8 0,14" fill="none" stroke="#B8A2D8" stroke-width="2.4"/><path d="M156,4 q2,8 0,14" fill="none" stroke="#B8A2D8" stroke-width="2.4"/><path d="M164,4 q2,8 0,14" fill="none" stroke="#B8A2D8" stroke-width="2.4"/><ellipse cx="14" cy="40" rx="5" ry="4" fill="#7FA563" stroke="#1F1D1B" stroke-width="0.5"/><circle cx="16" cy="38" r="1.5" fill="#FFFFFF"/><ellipse cx="23" cy="40" rx="5" ry="4" fill="#7FA563" stroke="#1F1D1B" stroke-width="0.5"/><circle cx="25" cy="38" r="1.5" fill="#F2D16B"/><ellipse cx="32" cy="40" rx="5" ry="4" fill="#7FA563" stroke="#1F1D1B" stroke-width="0.5"/><circle cx="34" cy="38" r="1.5" fill="#FFFFFF"/><ellipse cx="41" cy="40" rx="5" ry="4" fill="#7FA563" stroke="#1F1D1B" stroke-width="0.5"/><circle cx="43" cy="38" r="1.5" fill="#FFFFFF"/><ellipse cx="50" cy="40" rx="5" ry="4" fill="#7FA563" stroke="#1F1D1B" stroke-width="0.5"/><circle cx="52" cy="38" r="1.5" fill="#F2D16B"/><ellipse cx="59" cy="40" rx="5" ry="4" fill="#7FA563" stroke="#1F1D1B" stroke-width="0.5"/><circle cx="61" cy="38" r="1.5" fill="#F2D16B"/><ellipse cx="68" cy="40" rx="5" ry="4" fill="#7FA563" stroke="#1F1D1B" stroke-width="0.5"/><circle cx="70" cy="38" r="1.5" fill="#F2D16B"/><ellipse cx="77" cy="40" rx="5" ry="4" fill="#7FA563" stroke="#1F1D1B" stroke-width="0.5"/><circle cx="79" cy="38" r="1.5" fill="#FFFFFF"/><ellipse cx="86" cy="40" rx="5" ry="4" fill="#7FA563" stroke="#1F1D1B" stroke-width="0.5"/><circle cx="88" cy="38" r="1.5" fill="#FFFFFF"/><ellipse cx="95" cy="40" rx="5" ry="4" fill="#7FA563" stroke="#1F1D1B" stroke-width="0.5"/><circle cx="97" cy="38" r="1.5" fill="#F2D16B"/><ellipse cx="104" cy="40" rx="5" ry="4" fill="#7FA563" stroke="#1F1D1B" stroke-width="0.5"/><circle cx="106" cy="38" r="1.5" fill="#FFFFFF"/><ellipse cx="113" cy="40" rx="5" ry="4" fill="#7FA563" stroke="#1F1D1B" stroke-width="0.5"/><circle cx="115" cy="38" r="1.5" fill="#FFFFFF"/><ellipse cx="122" cy="40" rx="5" ry="4" fill="#7FA563" stroke="#1F1D1B" stroke-width="0.5"/><circle cx="124" cy="38" r="1.5" fill="#E8A0B4"/><ellipse cx="131" cy="40" rx="5" ry="4" fill="#7FA563" stroke="#1F1D1B" stroke-width="0.5"/><circle cx="133" cy="38" r="1.5" fill="#E8A0B4"/><ellipse cx="140" cy="40" rx="5" ry="4" fill="#7FA563" stroke="#1F1D1B" stroke-width="0.5"/><circle cx="142" cy="38" r="1.5" fill="#F2D16B"/><ellipse cx="149" cy="40" rx="5" ry="4" fill="#7FA563" stroke="#1F1D1B" stroke-width="0.5"/><circle cx="151" cy="38" r="1.5" fill="#FFFFFF"/><ellipse cx="158" cy="40" rx="5" ry="4" fill="#7FA563" stroke="#1F1D1B" stroke-width="0.5"/><circle cx="160" cy="38" r="1.5" fill="#FFFFFF"/><ellipse cx="167" cy="40" rx="5" ry="4" fill="#7FA563" stroke="#1F1D1B" stroke-width="0.5"/><circle cx="169" cy="38" r="1.5" fill="#E8A0B4"/><ellipse cx="176" cy="40" rx="5" ry="4" fill="#7FA563" stroke="#1F1D1B" stroke-width="0.5"/><circle cx="178" cy="38" r="1.5" fill="#E8A0B4"/><ellipse cx="185" cy="40" rx="5" ry="4" fill="#7FA563" stroke="#1F1D1B" stroke-width="0.5"/><circle cx="187" cy="38" r="1.5" fill="#FFFFFF"/><ellipse cx="194" cy="40" rx="5" ry="4" fill="#7FA563" stroke="#1F1D1B" stroke-width="0.5"/><circle cx="196" cy="38" r="1.5" fill="#E8A0B4"/><ellipse cx="203" cy="40" rx="5" ry="4" fill="#7FA563" stroke="#1F1D1B" stroke-width="0.5"/><circle cx="205" cy="38" r="1.5" fill="#F2D16B"/><ellipse cx="212" cy="40" rx="5" ry="4" fill="#7FA563" stroke="#1F1D1B" stroke-width="0.5"/><circle cx="214" cy="38" r="1.5" fill="#E8A0B4"/><ellipse cx="221" cy="40" rx="5" ry="4" fill="#7FA563" stroke="#1F1D1B" stroke-width="0.5"/><circle cx="223" cy="38" r="1.5" fill="#E8A0B4"/><ellipse cx="230" cy="40" rx="5" ry="4" fill="#7FA563" stroke="#1F1D1B" stroke-width="0.5"/><circle cx="232" cy="38" r="1.5" fill="#FFFFFF"/><ellipse cx="239" cy="40" rx="5" ry="4" fill="#7FA563" stroke="#1F1D1B" stroke-width="0.5"/><circle cx="241" cy="38" r="1.5" fill="#F2D16B"/><path d="M18,44 q-4,20 2,40 q-6,16 0,30" fill="none" stroke="#6FAE5E" stroke-width="1.6"/><path d="M40,44 q-4,20 2,40 q-6,16 0,30" fill="none" stroke="#6FAE5E" stroke-width="1.6"/><path d="M62,44 q-4,20 2,40 q-6,16 0,30" fill="none" stroke="#6FAE5E" stroke-width="1.6"/><path d="M84,44 q-4,20 2,40 q-6,16 0,30" fill="none" stroke="#6FAE5E" stroke-width="1.6"/><path d="M106,44 q-4,20 2,40 q-6,16 0,30" fill="none" stroke="#6FAE5E" stroke-width="1.6"/><path d="M128,44 q-4,20 2,40 q-6,16 0,30" fill="none" stroke="#6FAE5E" stroke-width="1.6"/><path d="M150,44 q-4,20 2,40 q-6,16 0,30" fill="none" stroke="#6FAE5E" stroke-width="1.6"/><path d="M172,44 q-4,20 2,40 q-6,16 0,30" fill="none" stroke="#6FAE5E" stroke-width="1.6"/><path d="M194,44 q-4,20 2,40 q-6,16 0,30" fill="none" stroke="#6FAE5E" stroke-width="1.6"/><path d="M216,44 q-4,20 2,40 q-6,16 0,30" fill="none" stroke="#6FAE5E" stroke-width="1.6"/><rect x="22" y="56" width="32" height="30" fill="#F2CF86" stroke="#1F1D1B" stroke-width="0.8"/><rect x="23" y="74.6" width="30" height="10.4" fill="#E3B56A" opacity="0.55"/><rect x="27.8" y="58" width="9.6" height="7.5" fill="#FFE7AE" opacity="0.8"/><rect x="66" y="56" width="32" height="30" fill="#5D6A7B" stroke="#1F1D1B" stroke-width="0.8"/><rect x="110" y="56" width="32" height="30" fill="#5D6A7B" stroke="#1F1D1B" stroke-width="0.8"/><rect x="154" y="56" width="32" height="30" fill="#F2CF86" stroke="#1F1D1B" stroke-width="0.8"/><rect x="155" y="74.6" width="30" height="10.4" fill="#E3B56A" opacity="0.55"/><rect x="159.8" y="58" width="9.6" height="7.5" fill="#FFE7AE" opacity="0.8"/><rect x="198" y="56" width="32" height="30" fill="#5D6A7B" stroke="#1F1D1B" stroke-width="0.8"/><rect x="22" y="100" width="32" height="30" fill="#F2CF86" stroke="#1F1D1B" stroke-width="0.8"/><rect x="23" y="118.6" width="30" height="10.4" fill="#E3B56A" opacity="0.55"/><rect x="27.8" y="102" width="9.6" height="7.5" fill="#FFE7AE" opacity="0.8"/><rect x="66" y="100" width="32" height="30" fill="#5D6A7B" stroke="#1F1D1B" stroke-width="0.8"/><rect x="110" y="100" width="32" height="30" fill="#F2CF86" stroke="#1F1D1B" stroke-width="0.8"/><rect x="111" y="118.6" width="30" height="10.4" fill="#E3B56A" opacity="0.55"/><rect x="115.8" y="102" width="9.6" height="7.5" fill="#FFE7AE" opacity="0.8"/><rect x="154" y="100" width="32" height="30" fill="#5D6A7B" stroke="#1F1D1B" stroke-width="0.8"/><rect x="198" y="100" width="32" height="30" fill="#5D6A7B" stroke="#1F1D1B" stroke-width="0.8"/><rect x="26" y="148" width="204" height="22" rx="3" fill="#4F8A5B" stroke="#1F1D1B" stroke-width="1"/><text x="134" y="163" font-size="10.5" font-weight="800" fill="#FFFFFF" text-anchor="middle" font-family="'Noto Sans CJK JP','Noto Sans JP',sans-serif">おくじょう ていえん ↑</text><rect x="10" y="174" width="236" height="48" fill="#6B5A46" stroke="#1F1D1B" stroke-width="1"/><path d="M14,174 h228 l4,12 h-236Z" fill="#FBF4E6" stroke="#1F1D1B" stroke-width="0.9"/><path d="M14,174 h6 L16.210526315789473,186 H10Z" fill="#4F8A5B"/><path d="M26,174 h6 L28.63157894736842,186 H22.421052631578945Z" fill="#4F8A5B"/><path d="M38,174 h6 L41.05263157894737,186 H34.84210526315789Z" fill="#4F8A5B"/><path d="M50,174 h6 L53.473684210526315,186 H47.26315789473684Z" fill="#4F8A5B"/><path d="M62,174 h6 L65.89473684210526,186 H59.68421052631579Z" fill="#4F8A5B"/><path d="M74,174 h6 L78.31578947368422,186 H72.10526315789474Z" fill="#4F8A5B"/><path d="M86,174 h6 L90.73684210526316,186 H84.52631578947368Z" fill="#4F8A5B"/><path d="M98,174 h6 L103.15789473684211,186 H96.94736842105263Z" fill="#4F8A5B"/><path d="M110,174 h6 L115.57894736842105,186 H109.36842105263158Z" fill="#4F8A5B"/><path d="M122,174 h6 L128,186 H121.78947368421052Z" fill="#4F8A5B"/><path d="M134,174 h6 L140.42105263157896,186 H134.21052631578948Z" fill="#4F8A5B"/><path d="M146,174 h6 L152.8421052631579,186 H146.63157894736844Z" fill="#4F8A5B"/><path d="M158,174 h6 L165.26315789473685,186 H159.05263157894737Z" fill="#4F8A5B"/><path d="M170,174 h6 L177.68421052631578,186 H171.47368421052633Z" fill="#4F8A5B"/><path d="M182,174 h6 L190.10526315789474,186 H183.89473684210526Z" fill="#4F8A5B"/><path d="M194,174 h6 L202.52631578947367,186 H196.31578947368422Z" fill="#4F8A5B"/><path d="M206,174 h6 L214.94736842105263,186 H208.73684210526315Z" fill="#4F8A5B"/><path d="M218,174 h6 L227.36842105263156,186 H221.1578947368421Z" fill="#4F8A5B"/><path d="M230,174 h6 L239.78947368421052,186 H233.57894736842104Z" fill="#4F8A5B"/><path d="M10,186 q4,6 7.866666666666666,0 q4,6 7.866666666666666,0 q4,6 7.866666666666666,0 q4,6 7.866666666666666,0 q4,6 7.866666666666666,0 q4,6 7.866666666666666,0 q4,6 7.866666666666666,0 q4,6 7.866666666666666,0 q4,6 7.866666666666666,0 q4,6 7.866666666666666,0 q4,6 7.866666666666666,0 q4,6 7.866666666666666,0 q4,6 7.866666666666666,0 q4,6 7.866666666666666,0 q4,6 7.866666666666666,0 q4,6 7.866666666666666,0 q4,6 7.866666666666666,0 q4,6 7.866666666666666,0 q4,6 7.866666666666666,0 q4,6 7.866666666666666,0 q4,6 7.866666666666666,0 q4,6 7.866666666666666,0 q4,6 7.866666666666666,0 q4,6 7.866666666666666,0 q4,6 7.866666666666666,0 q4,6 7.866666666666666,0 q4,6 7.866666666666666,0 q4,6 7.866666666666666,0 q4,6 7.866666666666666,0 q4,6 7.866666666666666,0Z" fill="#4F8A5B" stroke="#1F1D1B" stroke-width="0.8"/><rect x="16" y="206" width="16" height="14" fill="#8FA1AE" stroke="#1F1D1B" stroke-width="0.7"/><path d="M20,206 L19,196" stroke="#5E8B5A" stroke-width="0.8" stroke-linecap="round" fill="none"/><circle cx="19" cy="195" r="2.4" fill="#E8A0B4" stroke="#1F1D1B" stroke-width="0.3"/><path d="M23,206 L22,196" stroke="#5E8B5A" stroke-width="0.8" stroke-linecap="round" fill="none"/><circle cx="22" cy="195" r="2.4" fill="#E8A0B4" stroke="#1F1D1B" stroke-width="0.3"/><path d="M26,206 L25,196" stroke="#5E8B5A" stroke-width="0.8" stroke-linecap="round" fill="none"/><circle cx="25" cy="195" r="2.4" fill="#E8A0B4" stroke="#1F1D1B" stroke-width="0.3"/><path d="M29,206 L28,196" stroke="#5E8B5A" stroke-width="0.8" stroke-linecap="round" fill="none"/><circle cx="28" cy="195" r="2.4" fill="#E8A0B4" stroke="#1F1D1B" stroke-width="0.3"/><rect x="38" y="206" width="16" height="14" fill="#8FA1AE" stroke="#1F1D1B" stroke-width="0.7"/><path d="M42,206 L41,196" stroke="#5E8B5A" stroke-width="0.8" stroke-linecap="round" fill="none"/><circle cx="41" cy="195" r="2.4" fill="#F2D16B" stroke="#1F1D1B" stroke-width="0.3"/><path d="M45,206 L44,196" stroke="#5E8B5A" stroke-width="0.8" stroke-linecap="round" fill="none"/><circle cx="44" cy="195" r="2.4" fill="#F2D16B" stroke="#1F1D1B" stroke-width="0.3"/><path d="M48,206 L47,196" stroke="#5E8B5A" stroke-width="0.8" stroke-linecap="round" fill="none"/><circle cx="47" cy="195" r="2.4" fill="#F2D16B" stroke="#1F1D1B" stroke-width="0.3"/><path d="M51,206 L50,196" stroke="#5E8B5A" stroke-width="0.8" stroke-linecap="round" fill="none"/><circle cx="50" cy="195" r="2.4" fill="#F2D16B" stroke="#1F1D1B" stroke-width="0.3"/><rect x="60" y="206" width="16" height="14" fill="#8FA1AE" stroke="#1F1D1B" stroke-width="0.7"/><path d="M64,206 L63,196" stroke="#5E8B5A" stroke-width="0.8" stroke-linecap="round" fill="none"/><circle cx="63" cy="195" r="2.4" fill="#B8A2D8" stroke="#1F1D1B" stroke-width="0.3"/><path d="M67,206 L66,196" stroke="#5E8B5A" stroke-width="0.8" stroke-linecap="round" fill="none"/><circle cx="66" cy="195" r="2.4" fill="#B8A2D8" stroke="#1F1D1B" stroke-width="0.3"/><path d="M70,206 L69,196" stroke="#5E8B5A" stroke-width="0.8" stroke-linecap="round" fill="none"/><circle cx="69" cy="195" r="2.4" fill="#B8A2D8" stroke="#1F1D1B" stroke-width="0.3"/><path d="M73,206 L72,196" stroke="#5E8B5A" stroke-width="0.8" stroke-linecap="round" fill="none"/><circle cx="72" cy="195" r="2.4" fill="#B8A2D8" stroke="#1F1D1B" stroke-width="0.3"/><rect x="188" y="206" width="16" height="14" fill="#8FA1AE" stroke="#1F1D1B" stroke-width="0.7"/><path d="M192,206 L191,196" stroke="#5E8B5A" stroke-width="0.8" stroke-linecap="round" fill="none"/><circle cx="191" cy="195" r="2.4" fill="#F0A36B" stroke="#1F1D1B" stroke-width="0.3"/><path d="M195,206 L194,196" stroke="#5E8B5A" stroke-width="0.8" stroke-linecap="round" fill="none"/><circle cx="194" cy="195" r="2.4" fill="#F0A36B" stroke="#1F1D1B" stroke-width="0.3"/><path d="M198,206 L197,196" stroke="#5E8B5A" stroke-width="0.8" stroke-linecap="round" fill="none"/><circle cx="197" cy="195" r="2.4" fill="#F0A36B" stroke="#1F1D1B" stroke-width="0.3"/><path d="M201,206 L200,196" stroke="#5E8B5A" stroke-width="0.8" stroke-linecap="round" fill="none"/><circle cx="200" cy="195" r="2.4" fill="#F0A36B" stroke="#1F1D1B" stroke-width="0.3"/><rect x="210" y="206" width="16" height="14" fill="#8FA1AE" stroke="#1F1D1B" stroke-width="0.7"/><path d="M214,206 L213,196" stroke="#5E8B5A" stroke-width="0.8" stroke-linecap="round" fill="none"/><circle cx="213" cy="195" r="2.4" fill="#E8738E" stroke="#1F1D1B" stroke-width="0.3"/><path d="M217,206 L216,196" stroke="#5E8B5A" stroke-width="0.8" stroke-linecap="round" fill="none"/><circle cx="216" cy="195" r="2.4" fill="#E8738E" stroke="#1F1D1B" stroke-width="0.3"/><path d="M220,206 L219,196" stroke="#5E8B5A" stroke-width="0.8" stroke-linecap="round" fill="none"/><circle cx="219" cy="195" r="2.4" fill="#E8738E" stroke="#1F1D1B" stroke-width="0.3"/><path d="M223,206 L222,196" stroke="#5E8B5A" stroke-width="0.8" stroke-linecap="round" fill="none"/><circle cx="222" cy="195" r="2.4" fill="#E8738E" stroke="#1F1D1B" stroke-width="0.3"/><rect x="116" y="177" width="56" height="44" fill="#4A3A2E" stroke="#1F1D1B" stroke-width="1"/><rect x="120" y="181" width="23" height="40" fill="#F2CF86" stroke="#1F1D1B" stroke-width="0.8"/><rect x="121" y="205.8" width="21" height="14.2" fill="#E3B56A" opacity="0.55"/><rect x="124.1" y="183" width="6.9" height="10" fill="#FFE7AE" opacity="0.8"/><rect x="145" y="181" width="23" height="40" fill="#F2CF86" stroke="#1F1D1B" stroke-width="0.8"/><rect x="146" y="205.8" width="21" height="14.2" fill="#E3B56A" opacity="0.55"/><rect x="149.1" y="183" width="6.9" height="10" fill="#FFE7AE" opacity="0.8"/><path d="M144,181 L144,221" stroke="#1F1D1B" stroke-width="1.1" stroke-linecap="round" fill="none"/><rect x="139" y="201" width="2" height="9" fill="#E9E4D6"/><rect x="147" y="201" width="2" height="9" fill="#E9E4D6"/><rect x="112" y="218.5" width="64" height="2.5" fill="#C9C2B2" stroke="#1F1D1B" stroke-width="0.6"/><rect x="122" y="216.5" width="44" height="2" fill="#4F8A5B"/><ellipse cx="144" cy="220" rx="60" ry="8" fill="#FFE3A0" opacity="0.22"/></g></svg>