<svg xmlns="http://www.w3.org/2000/svg" viewBox="-10 0 220 220"><g transform=""><ellipse cx="88" cy="199" rx="11" ry="8" fill="#FADA78" stroke="#1F1D1B" stroke-width="4.5" stroke-linejoin="round" stroke-linecap="round"/></g><g transform=""><ellipse cx="112" cy="199" rx="11" ry="8" fill="#FADA78" stroke="#1F1D1B" stroke-width="4.5" stroke-linejoin="round" stroke-linecap="round"/></g><g transform=""><ellipse cx="68" cy="166" rx="7" ry="11" transform="rotate(40 68 166)" fill="#FADA78" stroke="#1F1D1B" stroke-width="4.5" stroke-linejoin="round" stroke-linecap="round"/><ellipse cx="132" cy="166" rx="7" ry="11" transform="rotate(-40 132 166)" fill="#FADA78" stroke="#1F1D1B" stroke-width="4.5" stroke-linejoin="round" stroke-linecap="round"/><path d="M76,142 C67,158 69,182 82,191 C92,197 108,197 118,191 C131,182 133,158 124,142 Z" fill="#FADA78" stroke="#1F1D1B" stroke-width="4.5" stroke-linejoin="round" stroke-linecap="round"/><path d="M100,43 C131,43 155,66 155,98 C155,129 131,153 100,153 C69,153 45,129 45,98 C45,66 69,43 100,43 Z" fill="#FADA78" stroke="#1F1D1B" stroke-width="4.5" stroke-linejoin="round" stroke-linecap="round"/><path d="M73,106 L87,106" fill="none" stroke="#1F1D1B" stroke-width="3.5" stroke-linejoin="round" stroke-linecap="round"/><path d="M113,106 L127,106" fill="none" stroke="#1F1D1B" stroke-width="3.5" stroke-linejoin="round" stroke-linecap="round"/><path d="M88,118 C90,112 110,112 112,118 C112,124 106,128 100,128 C94,128 88,124 88,118 Z" fill="#F29A1F" stroke="#1F1D1B" stroke-width="3.5" stroke-linejoin="round" stroke-linecap="round"/><path d="M90,120 C96,123 104,123 110,120" fill="none" stroke="#1F1D1B" stroke-width="3" stroke-linejoin="round" stroke-linecap="round"/><path d="M150,30 h10.0 l-10.0,12.0 h10.0" fill="none" stroke="#1F1D1B" stroke-width="3" stroke-linejoin="round" stroke-linecap="round"/><path d="M166.0,16.0 h7.0 l-7.0,9.0 h7.0" fill="none" stroke="#1F1D1B" stroke-width="3" stroke-linejoin="round" stroke-linecap="round"/></g></svg>